<svg width="55" height="38" viewBox="0 0 55 38" fill="none" xmlns="http://www.w3.org/2000/svg">
<path fill-rule="evenodd" clip-rule="evenodd" d="M20.1499 29.3277V30.7298V32.132H19.5361V31.7915C19.3414 32.044 19.046 32.2025 18.6445 32.2025C17.8529 32.2025 17.2323 31.5867 17.2323 30.7298C17.2323 29.8736 17.8529 29.2572 18.6445 29.2572C19.046 29.2572 19.3414 29.4157 19.5361 29.6681V29.3277H20.1499ZM18.7209 29.832C18.1895 29.832 17.8644 30.2369 17.8644 30.7298C17.8644 31.2227 18.1895 31.6277 18.7209 31.6277C19.2285 31.6277 19.5713 31.2402 19.5713 30.7298C19.5713 30.2195 19.2285 29.832 18.7209 29.832ZM40.8924 30.7298C40.8924 30.2369 41.2176 29.832 41.7489 29.832C42.2573 29.832 42.5993 30.2195 42.5993 30.7298C42.5993 31.2402 42.2573 31.6277 41.7489 31.6277C41.2176 31.6277 40.8924 31.2227 40.8924 30.7298ZM43.1787 28.2015V30.7298V32.132H42.5642V31.7915C42.3695 32.044 42.0741 32.2025 41.6725 32.2025C40.8809 32.2025 40.2604 31.5867 40.2604 30.7298C40.2604 29.8736 40.8809 29.2572 41.6725 29.2572C42.0741 29.2572 42.3695 29.4157 42.5642 29.6681V28.2015H43.1787ZM27.7692 29.8031C28.1646 29.8031 28.4188 30.0496 28.4837 30.4834L27.0188 30.4834C27.0844 30.0784 27.3318 29.8031 27.7692 29.8031ZM26.3752 30.7298C26.3752 29.8555 26.9539 29.2572 27.7813 29.2572C28.5722 29.2572 29.1158 29.8555 29.1218 30.7298C29.1218 30.8118 29.1158 30.8883 29.1097 30.9642L27.0134 30.9642C27.1019 31.4692 27.4622 31.6512 27.8577 31.6512C28.141 31.6512 28.4425 31.5451 28.6791 31.3577L28.9799 31.8096C28.6371 32.0971 28.2478 32.2025 27.8226 32.2025C26.9776 32.2025 26.3752 31.6216 26.3752 30.7298ZM35.193 30.7298C35.193 30.2369 35.5182 29.832 36.0495 29.832C36.5572 29.832 36.8999 30.2195 36.8999 30.7298C36.8999 31.2402 36.5572 31.6277 36.0495 31.6277C35.5182 31.6277 35.193 31.2227 35.193 30.7298ZM37.4786 29.3277V30.7298V32.132H36.8648V31.7915C36.6694 32.044 36.3747 32.2025 35.9732 32.2025C35.1816 32.2025 34.561 31.5867 34.561 30.7298C34.561 29.8736 35.1816 29.2572 35.9732 29.2572C36.3747 29.2572 36.6694 29.4157 36.8648 29.6681V29.3277H37.4786ZM31.7265 30.7298C31.7265 31.5807 32.3227 32.2025 33.2326 32.2025C33.6578 32.2025 33.941 32.1085 34.248 31.8681L33.9532 31.3752C33.7227 31.5397 33.4807 31.6277 33.2143 31.6277C32.7242 31.6216 32.3639 31.2697 32.3639 30.7298C32.3639 30.1899 32.7242 29.838 33.2143 29.832C33.4807 29.832 33.7227 29.92 33.9532 30.0845L34.248 29.5916C33.941 29.3512 33.6578 29.2572 33.2326 29.2572C32.3227 29.2572 31.7265 29.879 31.7265 30.7298ZM38.8961 29.6681C39.0556 29.4217 39.2861 29.2572 39.6404 29.2572C39.7647 29.2572 39.9419 29.2807 40.0777 29.3337L39.8884 29.9086C39.7587 29.8555 39.6289 29.838 39.5045 29.838C39.1029 29.838 38.9022 30.0959 38.9022 30.5599V32.132H38.2877V29.3277H38.8961V29.6681ZM23.1858 29.5506C22.8904 29.3572 22.4834 29.2572 22.0346 29.2572C21.3194 29.2572 20.859 29.5976 20.859 30.155C20.859 30.6123 21.2017 30.8944 21.8331 30.9823L22.1231 31.0233C22.4598 31.0703 22.6186 31.1583 22.6186 31.3167C22.6186 31.5336 22.3942 31.6572 21.9751 31.6572C21.5499 31.6572 21.243 31.5222 21.0361 31.3637L20.7468 31.8385C21.0834 32.085 21.5087 32.2025 21.969 32.2025C22.7843 32.2025 23.2568 31.8211 23.2568 31.2872C23.2568 30.7943 22.885 30.5364 22.2705 30.4485L21.9812 30.4068C21.7155 30.3719 21.5026 30.3195 21.5026 30.1315C21.5026 29.926 21.7033 29.8031 22.04 29.8031C22.4003 29.8031 22.7491 29.9381 22.9201 30.0435L23.1858 29.5506ZM30.3623 29.6681C30.5212 29.4217 30.7517 29.2572 31.1059 29.2572C31.2303 29.2572 31.4074 29.2807 31.5433 29.3337L31.354 29.9086C31.2242 29.8555 31.0944 29.838 30.97 29.838C30.5685 29.838 30.3677 30.0959 30.3677 30.5599V32.132H29.7539V29.3277H30.3623V29.6681ZM25.8675 29.3277H24.8636V28.4769H24.243V29.3277H23.6705V29.8851H24.243V31.1643C24.243 31.815 24.4972 32.2025 25.2232 32.2025C25.4896 32.2025 25.7965 32.1206 25.9912 31.9856L25.8141 31.4631C25.6309 31.5686 25.4301 31.6216 25.2706 31.6216C24.9636 31.6216 24.8636 31.4336 24.8636 31.1522V29.8851H25.8675V29.3277ZM16.6894 30.3719V32.132H16.0689V30.5714C16.0689 30.0959 15.8681 29.832 15.449 29.832C15.0414 29.832 14.7581 30.0905 14.7581 30.5774V32.132H14.1375V30.5714C14.1375 30.0959 13.9314 29.832 13.5237 29.832C13.1039 29.832 12.8322 30.0905 12.8322 30.5774V32.132H12.2123V29.3277H12.8268V29.6735C13.0573 29.3451 13.352 29.2572 13.6535 29.2572C14.0848 29.2572 14.3917 29.4452 14.5864 29.7561C14.8467 29.3626 15.2185 29.2511 15.5788 29.2572C16.2642 29.2632 16.6894 29.7091 16.6894 30.3719Z" fill="#334F60"/>
<path d="M32.2855 24.5626H22.9823V7.95444H32.2855V24.5626Z" fill="#FF5F00"/>
<path d="M23.5725 16.2589C23.5725 12.8898 25.1605 9.88876 27.6333 7.95477C25.825 6.54054 23.5428 5.69643 21.0625 5.69643C15.1908 5.69643 10.431 10.4253 10.431 16.2589C10.431 22.0924 15.1908 26.8213 21.0625 26.8213C23.5428 26.8213 25.825 25.9772 27.6333 24.5629C25.1605 22.6289 23.5725 19.6279 23.5725 16.2589" fill="#EB001B"/>
<path d="M44.8362 16.2589C44.8362 22.0924 40.0765 26.8213 34.2047 26.8213C31.7245 26.8213 29.4423 25.9772 27.6333 24.5629C30.1068 22.6289 31.6947 19.6279 31.6947 16.2589C31.6947 12.8898 30.1068 9.88876 27.6333 7.95477C29.4423 6.54054 31.7245 5.69643 34.2047 5.69643C40.0765 5.69643 44.8362 10.4253 44.8362 16.2589" fill="#F79E1B"/>
</svg>
