<svg width="201" height="209" viewBox="0 0 201 209" fill="none" xmlns="http://www.w3.org/2000/svg">
<path d="M68.3813 195.562C67.1319 195.966 31.6745 195.508 30.3378 194.631C29.8195 194.309 29.5903 189.143 29.4867 182.892C29.4867 182.827 29.4867 182.761 29.4867 182.696C29.4867 181.41 29.4485 180.085 29.443 178.739C29.443 178.554 29.443 178.369 29.443 178.194L31.1671 159.824L54.8836 160.058L52.543 178.26V178.985L52.4012 182.75V183.137C52.4012 183.137 65.8935 189.377 67.2629 190.494C68.6323 191.611 69.6252 195.186 68.3813 195.562Z" fill="#F7A9A0"/>
<path d="M68.3813 195.562C67.1319 195.966 31.6745 195.508 30.3378 194.63C29.8195 194.309 29.5903 189.143 29.4867 182.892C29.4867 182.827 29.4867 182.761 29.4867 182.696C29.4867 181.41 29.4485 180.085 29.443 178.739C29.443 178.554 29.443 178.369 29.443 178.194L52.543 178.26V178.985L52.4012 182.75V183.137C52.4012 183.137 65.8935 189.377 67.2629 190.494C68.6323 191.611 69.6252 195.186 68.3813 195.562Z" fill="#EBEBEB"/>
<path d="M68.3813 195.562C67.743 195.769 58.108 195.748 48.6912 195.562C46.798 195.524 44.9158 195.481 43.1208 195.432C36.4047 195.246 30.8561 194.974 30.3378 194.636C29.8195 194.298 29.5958 189.295 29.4921 183.159C29.4921 183.072 29.4921 182.985 29.4921 182.897C29.4921 182.81 29.4921 182.761 29.4921 182.701H29.5194L52.3739 182.739V183.132C52.3739 183.132 65.8716 189.366 67.2356 190.483C68.5996 191.6 69.6253 195.186 68.3813 195.562Z" fill="#90CAF9"/>
<path d="M67.9939 194.184C62.0198 193.96 37.8941 193.639 31.9854 193.851C31.9363 193.851 31.9363 193.889 31.9854 193.889C37.8996 194.244 62.0253 194.385 67.9939 194.282C68.1194 194.282 68.1194 194.189 67.9939 194.184Z" fill="#263238"/>
<path d="M54.9327 182.837C52.5867 182.369 49.7005 182.69 47.8837 184.342C47.8128 184.407 47.8837 184.505 47.9819 184.483C50.2381 183.785 52.563 183.332 54.9163 183.132C54.9554 183.134 54.9937 183.12 55.0229 183.094C55.052 183.068 55.0696 183.032 55.0718 182.993C55.074 182.954 55.0605 182.915 55.0344 182.886C55.0084 182.857 54.9717 182.84 54.9327 182.837V182.837Z" fill="#263238"/>
<path d="M56.5694 183.884C54.2234 183.41 51.3427 183.737 49.526 185.388C49.455 185.448 49.526 185.551 49.6242 185.524C51.8847 184.83 54.213 184.379 56.5694 184.178C56.6085 184.178 56.646 184.163 56.6736 184.135C56.7012 184.107 56.7167 184.07 56.7167 184.031C56.7167 183.992 56.7012 183.954 56.6736 183.927C56.646 183.899 56.6085 183.884 56.5694 183.884Z" fill="#263238"/>
<path d="M58.2771 184.925C55.9311 184.456 53.0504 184.778 51.2336 186.429C51.1627 186.494 51.2336 186.592 51.3318 186.57C53.5882 185.874 55.9131 185.423 58.2662 185.224C58.3014 185.219 58.3337 185.202 58.3574 185.175C58.3811 185.149 58.3948 185.115 58.3961 185.079C58.3974 185.044 58.3862 185.009 58.3645 184.98C58.3428 184.952 58.3119 184.933 58.2771 184.925V184.925Z" fill="#263238"/>
<path d="M48.6912 195.557C46.798 195.519 44.9158 195.475 43.1208 195.426C36.4047 195.241 30.8561 194.968 30.3378 194.63C29.8195 194.293 29.5958 189.29 29.4921 183.154C29.4921 183.066 29.4921 182.979 29.4921 182.892C29.4921 182.805 29.4921 182.756 29.4921 182.696H29.5194C32.6401 184.886 43.6718 192.222 48.6912 195.557Z" fill="#263238"/>
<path d="M53.7815 182.816H28.2427C28.2427 182.816 33.3821 123.251 33.1857 122.199C32.9293 120.864 23.398 83.5887 21.5703 76.5423C18.8423 65.9809 16.66 57.7792 16.66 57.7792H38.3033C38.3033 57.7792 40.8239 65.763 44.0046 76.1554C49.1877 93.0493 56.1057 116.292 56.7931 121.932C57.917 131.066 53.7815 182.816 53.7815 182.816Z" fill="#6DB6B1"/>
<path d="M52.7885 178.467C48.8876 178.385 50.0115 178.352 46.1106 178.314C44.2011 178.314 31.6526 178.189 29.8686 178.483C29.8584 178.483 29.8487 178.487 29.8416 178.494C29.8344 178.502 29.8304 178.511 29.8304 178.521C29.8304 178.532 29.8344 178.541 29.8416 178.548C29.8487 178.556 29.8584 178.56 29.8686 178.56C31.6526 178.859 44.2011 178.75 46.1106 178.728C50.0115 178.69 48.8876 178.658 52.7885 178.581C52.8595 178.576 52.8595 178.467 52.7885 178.467Z" fill="#263238"/>
<path d="M38.1287 118.554C37.2885 114.87 36.0391 111.257 34.948 107.654C32.7365 100.305 30.5106 92.9548 28.27 85.6051C27.1534 81.932 26.0313 78.259 24.9038 74.5859C24.3291 72.733 23.7544 70.882 23.1797 69.0327C22.6342 67.218 21.9631 65.4251 21.4502 63.5831C21.2429 62.8365 21.1283 63.2452 21.3957 64.188C21.9413 66.0954 22.4868 68.0028 23.0324 69.8938C24.1236 73.654 25.2311 77.4106 26.355 81.1636C28.5665 88.6405 30.7997 96.1083 33.0548 103.567C34.1787 107.313 35.3044 111.055 36.432 114.793C37.0032 116.58 37.4642 118.4 37.8123 120.243C38.1059 122.158 38.1755 124.1 38.0196 126.03C37.7741 129.932 37.3213 133.829 36.9612 137.725C36.6011 141.622 36.2355 145.529 35.87 149.431C35.1426 157.199 34.4297 164.964 33.7313 172.728C33.6386 173.709 33.5567 174.696 33.4803 175.682C33.4531 176.009 33.955 175.987 33.9877 175.682C34.8279 168.004 35.4717 160.298 36.1974 152.608C36.923 144.919 37.6322 137.3 38.347 129.649C38.527 127.731 38.7343 125.802 38.7343 123.872C38.7328 122.082 38.5297 120.298 38.1287 118.554V118.554Z" fill="#263238"/>
<path d="M41.7132 195.562C40.4693 195.966 5.01179 195.508 3.66966 194.631C3.15681 194.309 2.92221 189.143 2.81855 182.892V182.696C2.81855 181.41 2.7749 180.085 2.7749 178.739C2.7749 178.554 2.7749 178.369 2.7749 178.194L4.49349 159.824L28.2155 160.058L25.8749 178.26V178.985L25.7331 182.75V183.137C25.7331 183.137 39.2308 189.377 40.6002 190.494C41.9696 191.611 42.9571 195.186 41.7132 195.562Z" fill="#F7A9A0"/>
<path d="M41.7132 195.562C40.4693 195.966 5.01179 195.508 3.66966 194.63C3.15681 194.309 2.92221 189.143 2.81855 182.892V182.696C2.81855 181.41 2.7749 180.085 2.7749 178.739C2.7749 178.554 2.7749 178.369 2.7749 178.194L25.8749 178.26V178.985L25.7331 182.75V183.137C25.7331 183.137 39.2308 189.377 40.6002 190.494C41.9696 191.611 42.9571 195.186 41.7132 195.562Z" fill="#EBEBEB"/>
<path d="M41.7187 195.562C41.0749 195.769 31.4399 195.748 22.0231 195.562C20.1299 195.524 18.2477 195.481 16.4527 195.432C9.73656 195.241 4.19343 194.968 3.67512 194.641C3.15682 194.314 2.93313 189.301 2.82947 183.164C2.82947 183.077 2.82947 182.99 2.82947 182.903C2.82947 182.816 2.82947 182.767 2.82947 182.707L25.684 182.745V183.137C25.684 183.137 39.1762 189.372 40.5457 190.489C41.9151 191.606 42.9571 195.186 41.7187 195.562Z" fill="white"/>
<path d="M41.3313 194.184C35.3299 193.96 11.2314 193.639 5.32278 193.851C5.27367 193.851 5.27367 193.889 5.32278 193.889C11.2424 194.244 35.3681 194.385 41.3313 194.282C41.4568 194.282 41.4568 194.189 41.3313 194.184Z" fill="#263238"/>
<path d="M28.2427 182.837C25.8967 182.369 23.0161 182.69 21.1993 184.342C21.1283 184.407 21.1993 184.505 21.2975 184.483C23.5537 183.785 25.8785 183.332 28.2318 183.132C28.2512 183.132 28.2705 183.129 28.2886 183.123C28.3068 183.116 28.3234 183.106 28.3376 183.092C28.3518 183.079 28.3632 183.063 28.3713 183.046C28.3794 183.028 28.3839 183.009 28.3846 182.99C28.3853 182.971 28.3822 182.951 28.3755 182.933C28.3687 182.915 28.3585 182.899 28.3453 182.884C28.3321 182.87 28.3163 182.859 28.2987 182.851C28.2811 182.843 28.2621 182.838 28.2427 182.837Z" fill="#263238"/>
<path d="M29.9286 183.884C27.5826 183.41 24.7019 183.737 22.8797 185.388C22.8087 185.448 22.8796 185.551 22.9779 185.524C25.2367 184.831 27.5631 184.379 29.9177 184.178C29.937 184.179 29.9563 184.176 29.9745 184.169C29.9926 184.162 30.0093 184.152 30.0234 184.139C30.0376 184.126 30.0491 184.11 30.0571 184.092C30.0652 184.075 30.0697 184.056 30.0704 184.036C30.0712 184.017 30.0681 183.998 30.0613 183.98C30.0546 183.962 30.0443 183.945 30.0312 183.931C30.018 183.917 30.0021 183.905 29.9846 183.897C29.967 183.889 29.9479 183.885 29.9286 183.884Z" fill="#263238"/>
<path d="M31.6144 184.925C29.2684 184.456 26.3878 184.778 24.5655 186.429C24.4946 186.494 24.5655 186.592 24.6637 186.57C26.9202 185.875 29.245 185.424 31.5981 185.224C31.6335 185.22 31.6663 185.203 31.6906 185.177C31.7149 185.151 31.7293 185.117 31.7313 185.081C31.7332 185.046 31.7226 185.011 31.7013 184.982C31.6799 184.953 31.6492 184.933 31.6144 184.925V184.925Z" fill="#263238"/>
<path d="M37.6268 57.7792C37.6268 57.7792 37.1248 68.1335 34.757 76.308C34.5661 76.9838 34.3587 77.6541 34.1351 78.2917C34.1351 78.2917 34.4679 78.0301 30.6979 80.3353C30.6979 80.3353 32.1546 121.469 32.2146 123.932C32.4274 133.115 25.744 183.197 25.744 183.197L0.210663 183.301C0.210663 183.301 9.33282 126.521 9.30009 123.148C9.25098 117.736 6.02659 94.2264 7.025 76.7985C7.45345 70.1742 9.2183 63.7049 12.2135 57.7792H37.6268Z" fill="#6DB6B1"/>
<path d="M25.0129 178.658C21.112 178.592 22.2304 178.554 18.3295 178.532C16.42 178.532 3.877 178.467 2.09294 178.772C2.08281 178.772 2.0731 178.776 2.06593 178.783C2.05877 178.79 2.05475 178.8 2.05475 178.81C2.05475 178.82 2.05877 178.83 2.06593 178.837C2.0731 178.844 2.08281 178.848 2.09294 178.848C3.877 179.137 16.42 178.974 18.3295 178.946C22.2304 178.892 21.112 178.865 25.0129 178.767C25.0274 178.767 25.0412 178.761 25.0515 178.751C25.0617 178.74 25.0675 178.727 25.0675 178.712C25.0675 178.698 25.0617 178.684 25.0515 178.674C25.0412 178.663 25.0274 178.658 25.0129 178.658V178.658Z" fill="#263238"/>
<path d="M13.8775 59.3215C10.6477 65.5232 9.44194 72.5805 9.18006 79.4852C8.89635 87.0002 9.79657 94.4935 10.5877 101.954C11.4224 109.796 12.1426 117.654 11.5424 125.54C10.9423 133.426 9.52377 141.415 8.37805 149.317C7.23232 157.219 6.03204 165.121 5.04999 173.044C4.9245 174.047 4.79902 175.05 4.68445 176.053C4.68445 176.107 4.75537 176.129 4.76083 176.053C6.16298 168.243 7.31416 160.39 8.50899 152.548C9.70382 144.706 11.0405 136.924 11.848 129.066C12.6554 121.208 12.3172 113.409 11.5261 105.573C10.7677 98.0248 9.76929 90.4825 9.74201 82.8857C9.74201 75.8012 10.4349 68.5913 12.9391 61.9319C13.2719 61.049 13.632 60.1662 14.0303 59.2943C14.0576 59.1962 13.943 59.1907 13.8775 59.3215Z" fill="#263238"/>
<path d="M35.3408 77.6813C32.8008 78.7378 30.3582 80.0143 28.0409 81.4961C28.0213 81.5062 28.0066 81.5236 28 81.5446C27.9933 81.5655 27.9953 81.5883 28.0054 81.6078C28.0155 81.6273 28.033 81.642 28.054 81.6486C28.075 81.6553 28.0977 81.6533 28.1173 81.6432C30.5778 80.4497 33.093 79.2999 35.4881 77.9702C35.5208 77.9477 35.5442 77.9141 35.5539 77.8757C35.5637 77.8373 35.5591 77.7966 35.5411 77.7613C35.5231 77.7259 35.4929 77.6984 35.456 77.6837C35.4192 77.669 35.3782 77.6681 35.3408 77.6813V77.6813Z" fill="#263238"/>
<path d="M35.4826 68.9074C35.3135 69.8121 35.0953 70.7113 34.8989 71.6322C34.7025 72.5532 34.577 73.338 34.3533 74.1772C34.1694 74.9855 33.7588 75.7246 33.1694 76.308C32.8366 76.6132 32.471 76.8911 32.1164 77.1691C31.9254 77.3217 31.7181 77.4688 31.5217 77.6214C31.5217 77.5015 31.5654 77.3816 31.5872 77.2563C31.6526 76.9129 31.7072 76.5696 31.7672 76.2263C31.8927 75.4633 32.0182 74.7004 32.1328 73.932C32.3619 72.4279 32.5747 70.9074 32.8911 69.4197C32.8911 69.3598 32.8093 69.338 32.7984 69.4197C32.4219 70.8965 32.0073 72.3516 31.6799 73.8448C31.5217 74.575 30.9488 78.2045 30.9216 78.4334C30.8943 78.6623 30.8725 78.9784 30.867 79.2236C30.8288 79.4911 30.8288 79.7626 30.867 80.0301C30.867 80.0955 30.9597 80.0846 30.987 80.0301C31.0969 79.7795 31.1739 79.5157 31.2162 79.2454C31.2816 78.9893 31.3417 78.7277 31.3853 78.4661C31.3853 78.3735 31.418 78.2753 31.429 78.1773C31.7836 77.9647 32.1164 77.6759 32.4492 77.4361C32.782 77.1963 33.1694 76.9238 33.5076 76.6405C34.1332 76.1114 34.5855 75.4071 34.8061 74.6186C35.0242 73.77 35.1667 72.9038 35.2317 72.0301C35.3462 71.0055 35.4281 69.9756 35.5699 68.9565C35.5863 68.8693 35.4936 68.842 35.4826 68.9074Z" fill="#263238"/>
<path d="M33.7695 28.4275C34.0969 32.6673 36.612 42.651 42.2315 51.5121C44.4138 54.9291 53.1432 59.4414 60.2903 62.3624C62.9296 63.4892 65.6485 64.42 68.425 65.1471V65.1471C68.7074 65.2138 68.9934 65.2648 69.2815 65.2997C72.6914 65.7084 75.0429 60.5585 75.4193 56.7056C75.4193 56.6021 75.4193 56.4931 75.4193 56.3896V56.2206C75.5066 54.6457 75.2393 53.3596 74.5519 52.8582C74.3082 52.6877 74.055 52.5312 73.7935 52.3895C71.7382 51.3318 69.6315 50.3769 67.4811 49.5285C66.8537 49.2669 66.1935 48.9835 65.5279 48.7328C59.2482 46.2096 52.0411 43.5012 51.3427 42.8472C50.2516 41.839 43.4918 34.0243 39.5963 27.2885C36.7375 22.3784 33.2239 21.3811 33.7695 28.4275Z" fill="#F7A9A0"/>
<path d="M60.2903 62.3624C62.9296 63.4893 65.6485 64.4201 68.425 65.1472V65.1472C71.8761 66.0143 75.4134 66.4932 78.9711 66.575C81.1534 66.575 87.4277 65.9265 87.5586 64.2534C87.6895 62.5804 85.84 62.6185 85.84 62.6185C85.84 62.6185 88.4479 61.9482 88.4261 60.2534C88.4261 58.8637 86.4783 58.7057 85.78 58.6893C85.7641 58.6807 85.7463 58.6763 85.7282 58.6763C85.7101 58.6763 85.6923 58.6807 85.6763 58.6893H85.529C85.529 58.6893 88.1587 57.8065 88.0169 56.1171C87.8914 54.6076 85.5836 54.9454 85.098 55.0272C85.5017 54.9018 87.384 54.2152 86.7348 53.0108C85.8891 51.3759 81.5353 53.1906 79.0966 53.0599C78.982 53.0599 78.3764 52.9836 77.5089 52.88C75.7194 51.5231 73.4934 50.2642 72.5059 50.0299C70.8347 49.7442 69.1437 49.5893 67.4484 49.5666C66.821 49.3051 66.1608 49.0217 65.4952 48.771C64.1476 50.2533 60.1048 55.3651 60.2903 62.3624Z" fill="#F7A9A0"/>
<path d="M68.0267 51.6539L67.5139 58.9836V59.0109V59.1744L67.121 64.733C67.544 64.9003 67.9778 65.0387 68.4195 65.1472V65.1472C71.8724 66.0147 75.4116 66.4936 78.9711 66.575C81.1534 66.575 87.4277 65.9265 87.5586 64.2534C87.6895 62.5804 85.84 62.6185 85.84 62.6185C85.84 62.6185 88.4479 61.9482 88.4261 60.2534C88.4261 58.8637 86.4783 58.7057 85.78 58.6894H85.529C85.529 58.6894 88.1587 57.8065 88.0169 56.1171C87.8914 54.6076 85.5836 54.9455 85.098 55.0272H85.0325H85.0816C85.4854 54.9019 87.3676 54.2152 86.7184 53.0108C85.8727 51.3759 81.519 53.1907 79.0802 53.0599C78.9657 53.0599 78.3601 52.9836 77.4926 52.88L73.799 52.4277L68.0267 51.6539Z" fill="#F7A9A0"/>
<path d="M76.756 55.8337C77.7605 56.1306 78.7879 56.3438 79.8277 56.4713C81.6708 56.6596 83.521 56.1884 85.0489 55.1416C85.1362 55.0926 85.1471 55.0326 85.1198 54.9999C85.1002 54.9907 85.0788 54.9859 85.0571 54.9859C85.0354 54.9859 85.014 54.9907 84.9944 54.9999C83.4658 55.7033 81.8052 56.0748 80.1223 56.0898C79.0063 56.0597 77.8948 55.9357 76.7997 55.7193C76.696 55.7193 76.6633 55.8174 76.756 55.8337Z" fill="#263238"/>
<path d="M76.8761 59.4904C80.346 60.1389 82.3974 60.3624 85.6981 58.8365C85.8018 58.7929 85.8291 58.7002 85.78 58.6621C85.7641 58.6535 85.7463 58.649 85.7282 58.649C85.7101 58.649 85.6923 58.6535 85.6763 58.6621C82.2392 59.7247 80.4715 59.752 76.9143 59.4032C76.8433 59.3923 76.827 59.4904 76.8761 59.4904Z" fill="#263238"/>
<path d="M85.5508 62.6621C82.1355 63.4578 80.1987 63.5831 76.7833 62.7875C76.7676 62.7856 76.7518 62.7895 76.7388 62.7984C76.7257 62.8073 76.7163 62.8206 76.7124 62.8359C76.7084 62.8512 76.71 62.8674 76.7171 62.8815C76.7241 62.8956 76.736 62.9067 76.7506 62.9128C80.1496 64.0627 82.572 63.9264 85.5618 62.7711C85.7691 62.6894 85.7636 62.6131 85.5508 62.6621Z" fill="#263238"/>
<path d="M68.9651 58.8691C69.1494 58.8491 69.3318 58.8145 69.5107 58.7656L69.658 58.722C72.4623 57.8174 73.4771 53.6375 73.4771 53.6375C74.4248 53.8625 75.3906 54.003 76.3632 54.0571C77.7654 54.1334 79.1893 54.019 80.0241 53.4686C80.2468 53.3329 80.4339 53.1461 80.5697 52.9236C80.6413 52.8032 80.6947 52.6728 80.7279 52.5367C80.7279 52.5367 80.7279 52.5367 80.7279 52.4985C80.8588 51.7247 79.2657 50.8146 77.3562 50.0843C75.2557 49.2832 72.7678 48.7001 71.753 48.7546C70.0702 48.9526 68.405 49.2788 66.7718 49.7301C66.079 49.9099 65.6207 50.0407 65.6207 50.0407C65.6207 50.0407 65.6425 59.2452 68.9651 58.8691Z" fill="#F7A9A0"/>
<path d="M80.4005 53.0435C78.5455 54.6239 75.7085 53.7574 73.5425 53.4195C73.3789 53.3923 73.3025 53.5122 73.3079 53.643C72.6751 55.6484 71.1965 58.297 69.0742 58.9564C69.0612 58.9564 69.0487 58.9615 69.0395 58.9707C69.0303 58.9799 69.0251 58.9924 69.0251 59.0054C69.0251 59.0184 69.0303 59.0309 69.0395 59.0401C69.0487 59.0493 69.0612 59.0545 69.0742 59.0545C71.4475 58.6566 73.1115 56.1716 73.6626 53.9318C75.8776 54.3187 78.7583 55.0599 80.3951 53.0599L80.4005 53.0435Z" fill="#263238"/>
<path d="M36.1864 41.3486L49.7387 39.8281C49.7387 39.8281 41.3422 27.4139 37.845 24.4602C33.9059 21.1359 33.0657 23.8716 33.4312 28.7599C33.7968 33.6483 36.1864 41.3486 36.1864 41.3486Z" fill="#DF4952"/>
<path opacity="0.1" d="M36.1864 41.3486L49.7387 39.8281C49.7387 39.8281 41.3422 27.4139 37.845 24.4602C33.9059 21.1359 33.0657 23.8716 33.4312 28.7599C33.7968 33.6483 36.1864 41.3486 36.1864 41.3486Z" fill="black"/>
<path d="M47.1363 37.4139C45.385 37.4139 40.1256 38.1006 39.2526 38.2096C38.7943 38.2641 36.9721 38.5693 36.5247 38.6238C36.4701 38.6238 36.4865 38.7164 36.5247 38.7109C37.3976 38.6129 38.2869 38.602 39.1653 38.5093C40.0437 38.4167 45.4177 37.8935 47.1363 37.4848C47.1434 37.4819 47.1495 37.4771 47.1537 37.4708C47.158 37.4644 47.1603 37.457 47.1603 37.4494C47.1603 37.4417 47.158 37.4343 47.1537 37.428C47.1495 37.4217 47.1434 37.4168 47.1363 37.4139V37.4139Z" fill="#263238"/>
<path d="M43.4754 40.5311L36.2137 41.3431C36.2137 41.3431 33.8295 33.6428 33.4858 28.7545C33.2185 25.2068 33.5895 22.7871 35.3299 23.016L43.4754 40.5311Z" fill="#263238"/>
<path d="M7.82155 67.7684C7.89793 67.872 42.9844 71.4578 43.3609 71.109C43.9064 70.6186 40.5456 29.5828 37.2176 24.2422C36.5083 23.0978 30.8179 21.5174 28.2918 23.2939C20.179 28.9725 7.54875 67.3869 7.82155 67.7684Z" fill="#DF4952"/>
<path opacity="0.1" d="M34.188 36.7614L27.5262 36.1031L27.4193 37.1823L34.0811 37.8406L34.188 36.7614Z" fill="black"/>
<path d="M57.7097 43.1906C57.5296 43.4413 53.345 51.2342 53.1704 52.1171C52.9959 52.9999 47.169 74.4115 47.5018 75.0492C47.8346 75.6868 56.9786 79.289 57.3823 79.289C57.7861 79.289 75.9322 75.2508 76.9088 74.5696C77.8854 73.8884 78.24 57.1907 77.8745 55.4959C77.5089 53.801 76.4123 50.6947 76.4123 50.6947L77.0888 49.7574C77.0888 49.7574 75.2229 41.8881 74.8683 42.1606C74.5137 42.4331 58.1025 42.6402 57.7097 43.1906Z" fill="#F8E4C7"/>
<path opacity="0.1" d="M57.3769 79.2944C56.9786 79.2944 47.8456 75.6867 47.5018 75.0491C47.1581 74.4115 53.0231 53.0053 53.1705 52.1225C53.3178 51.2397 57.5351 43.4467 57.7097 43.1906C58.4899 44.8254 59.1282 52.019 59.2264 52.9509C59.3246 53.8827 57.5569 77.3707 57.3769 79.2944Z" fill="black"/>
<path opacity="0.1" d="M76.4123 50.6784C75.0265 50.8964 73.6299 51.0271 72.2332 51.1634C70.8365 51.2996 69.4343 51.4141 68.0376 51.5067C66.6409 51.5994 65.2388 51.6865 63.8366 51.7574C62.4345 51.8282 61.0323 51.8664 59.6302 51.9154C59.5571 51.9017 59.4883 51.8709 59.4295 51.8254C59.3706 51.7799 59.3235 51.7211 59.2919 51.6538C59.2358 51.5541 59.1918 51.448 59.161 51.3378C59.094 51.1312 59.043 50.9199 59.0082 50.7056C58.931 50.2862 58.8836 49.8619 58.8664 49.4359C58.9482 49.8555 59.0355 50.2696 59.1501 50.6729C59.2025 50.8756 59.27 51.0742 59.3519 51.2669C59.4229 51.4413 59.5702 51.6484 59.6356 51.643C61.0323 51.5231 62.429 51.3759 63.8257 51.2724C65.2224 51.1688 66.6246 51.0707 68.0267 50.9944C69.4289 50.9182 70.8255 50.8419 72.2277 50.7983C73.6298 50.7547 75.0102 50.7111 76.4123 50.6784Z" fill="black"/>
<path d="M71.9112 53.8283L69.3088 53.8555L67.623 48.7111L70.2254 48.6893L71.9112 53.8283Z" fill="white"/>
<g opacity="0.1">
<path d="M57.4533 45.0107C57.1314 47.365 56.7549 49.7083 56.3621 52.0462C55.9693 54.3841 55.5492 56.722 55.14 59.0599C54.7308 61.3978 54.2671 63.7193 53.7979 66.0463L53.0886 69.5341C52.8267 70.6949 52.5921 71.8556 52.3193 73.011C52.4721 71.8339 52.663 70.6622 52.8322 69.4905L53.3778 65.9755C53.7651 63.6321 54.1961 61.2997 54.5999 58.9618C55.0036 56.6239 55.4728 54.3024 55.942 51.9754C56.4112 49.6484 56.9186 47.3214 57.4533 45.0107Z" fill="black"/>
<path d="M48.2657 74.6895C49.5532 73.981 50.8845 73.3598 52.2266 72.7767L52.3903 72.7058L52.5158 72.8475C53.2468 73.6758 53.967 74.5151 54.6653 75.3816C55.3637 76.2481 56.0293 77.1309 56.6567 78.0465C55.8384 77.289 55.0636 76.4933 54.3162 75.6813C53.5687 74.8693 52.8431 74.0464 52.1338 73.1745L52.423 73.2453C51.059 73.7848 49.6787 74.2808 48.2657 74.6895Z" fill="black"/>
</g>
<path d="M24.9583 27.4902C21.6848 36.3131 15.547 58.3787 20.0481 61.1962C27.4898 65.8229 42.6352 67.2289 47.2127 67.1908C49.1877 67.1908 51.5173 52.0299 49.4769 51.4795C47.0272 50.8201 31.3035 50.335 30.9925 49.0816C30.8179 48.3677 31.3417 41.1797 30.4469 33.245C29.4212 24.0296 26.0768 24.4711 24.9583 27.4902Z" fill="#F7A9A0"/>
<path d="M42.7552 52.6075C42.7552 52.6075 47.7582 49.2833 51.1354 47.2615C53.0177 46.1334 56.4167 44.4876 58.1789 44.2914C60.8141 44.0026 72.0258 44.4549 71.9712 47.1743C71.9276 49.632 62.3417 48.019 62.3417 48.019C62.3417 48.019 72.1622 48.7928 71.5566 51.7465C70.951 54.7002 60.3667 51.4359 60.3667 51.4359C60.3667 51.4359 70.4327 52.455 69.3306 55.4032C68.4959 57.6267 58.7463 55.2179 58.7463 55.2179C58.7463 55.2179 67.3883 56.1553 66.63 58.4877C65.7952 61.0599 56.6513 59.3978 56.6513 59.3978C53.7269 64.9837 50.1806 66.7821 47.3054 67.1853C46.6234 67.2671 42.7552 52.6075 42.7552 52.6075Z" fill="#F7A9A0"/>
<path d="M58.9646 47.5339C60.1212 47.583 61.2942 47.6266 62.4399 47.7792C63.5856 47.9318 64.7314 48.1225 65.8607 48.3786C67.3424 48.6846 68.7834 49.1619 70.1545 49.801C67.6339 48.8473 63.5365 48.2424 62.3908 48.0898C61.2451 47.9372 60.1048 47.7301 58.9591 47.5775C58.9318 47.5775 58.9373 47.5339 58.9646 47.5339Z" fill="#263238"/>
<path d="M58.3426 51.6647C59.8157 51.7901 61.2833 51.8609 62.7509 52.0571C64.2185 52.2533 65.5825 52.553 67.0283 52.8473C67.1374 52.8473 67.0883 52.9182 66.9792 52.9018C65.5225 52.6675 64.1585 52.5639 62.7018 52.3568C61.2451 52.1498 59.7938 51.8664 58.3371 51.7029C58.3153 51.6974 58.3208 51.6647 58.3426 51.6647Z" fill="#263238"/>
<path d="M57.1696 55.1307C59.4328 55.2615 61.6763 55.6268 63.8639 56.2207C63.973 56.2479 63.9075 56.3079 63.793 56.2861C61.5724 55.8719 59.8375 55.534 57.1696 55.1961C57.115 55.1852 57.115 55.1307 57.1696 55.1307Z" fill="#263238"/>
<path d="M55.762 44.8908C53.5796 45.3922 46.0451 50.1116 45.2158 50.8473C44.6157 50.7819 42.0296 50.6293 41.7405 50.6729C41.7296 50.6765 41.72 50.6834 41.7133 50.6927C41.7066 50.702 41.7029 50.7132 41.7029 50.7247C41.7029 50.7361 41.7066 50.7473 41.7133 50.7566C41.72 50.7659 41.7296 50.7729 41.7405 50.7764C42.0133 50.88 44.583 51.2506 45.1886 51.3214C45.2922 51.3214 54.0106 45.8718 55.8984 44.9726C55.9638 44.9235 55.8383 44.8745 55.762 44.8908Z" fill="#263238"/>
<path d="M31.9473 42.4276L18.6787 45.5721C18.6787 45.5721 22.3832 31.0542 24.6801 27.0923C27.2662 22.6345 28.9848 24.9125 30.2887 29.6482C31.5926 34.384 31.9473 42.4276 31.9473 42.4276Z" fill="#DF4952"/>
<path opacity="0.1" d="M31.9473 42.4276L18.6787 45.5721C18.6787 45.5721 22.3832 31.0542 24.6801 27.0923C27.2662 22.6345 28.9848 24.9125 30.2887 29.6482C31.5926 34.384 31.9473 42.4276 31.9473 42.4276Z" fill="black"/>
<path d="M30.927 40.1388C29.1866 40.3132 24.0254 41.5666 23.1743 41.7737C22.7214 41.8772 20.9428 42.3731 20.4955 42.4767C20.4354 42.4767 20.4955 42.5748 20.5227 42.5639C21.3848 42.3677 22.2631 42.2642 23.1252 42.0789C23.9872 41.8936 29.2903 40.7982 30.927 40.2096C30.9341 40.2068 30.9402 40.2019 30.9445 40.1956C30.9487 40.1893 30.951 40.1818 30.951 40.1742C30.951 40.1666 30.9487 40.1591 30.9445 40.1528C30.9402 40.1465 30.9341 40.1416 30.927 40.1388V40.1388Z" fill="#263238"/>
<path d="M22.4705 32.6946C22.4705 32.6346 22.3941 32.6183 22.3777 32.6946C21.9249 33.8826 21.4993 35.087 21.0956 36.2968C21.1563 35.6316 21.2769 34.9731 21.4557 34.3295C21.4557 34.3295 21.4229 34.2913 21.412 34.3295C21.1781 35.0664 21.0388 35.83 20.9974 36.602C20.7191 37.4412 20.4518 38.2914 20.1899 39.136C19.5243 41.3159 18.8314 43.4522 18.2913 45.6484C18.2857 45.6749 18.2869 45.7024 18.295 45.7282C18.3031 45.7541 18.3177 45.7775 18.3374 45.7961C18.3572 45.8147 18.3813 45.8279 18.4076 45.8345C18.434 45.8411 18.4615 45.8408 18.4877 45.8337C18.946 45.7083 19.3934 45.5721 19.8462 45.414C19.8899 45.414 19.8844 45.3214 19.8462 45.3268C19.4534 45.3704 19.0715 45.4304 18.6841 45.4958C19.3825 43.4304 19.9717 41.3268 20.61 39.2396C21.2484 37.1524 21.8976 34.8799 22.4705 32.6946Z" fill="#263238"/>
<path d="M31.7017 36.602C31.7017 35.8826 31.729 35.1633 31.7017 34.4221C31.7017 34.4221 31.7017 34.4221 31.6745 34.4221C31.649 34.9489 31.6272 35.4775 31.609 36.008C31.4726 34.9616 31.3198 33.9153 31.118 32.8853C31.118 32.8853 31.0852 32.8853 31.118 32.8853C31.1889 34.4821 31.3526 36.0734 31.4671 37.6646C31.5817 39.2559 31.7127 40.7873 31.8545 42.3513C31.5599 42.4712 31.2707 42.5802 30.9707 42.6892C30.9591 42.6928 30.9494 42.7009 30.9438 42.7116C30.9382 42.7223 30.937 42.7349 30.9406 42.7464C30.9443 42.758 30.9523 42.7677 30.9631 42.7733C30.9738 42.7789 30.9864 42.78 30.9979 42.7764C31.3362 42.7165 31.6745 42.6511 32.0182 42.602C32.0573 42.5993 32.094 42.5822 32.1212 42.5541C32.1485 42.5259 32.1642 42.4886 32.1655 42.4494C32.0837 40.5039 31.9363 38.5366 31.7017 36.602Z" fill="#263238"/>
<path d="M34.5551 28.9725C33.3112 29.0379 29.9286 26.4384 28.8047 23.8825C28.7283 23.7027 30.0104 17.0705 30.125 15.7081C30.125 15.4356 38.3633 18.4874 38.3633 18.4874C37.7385 20.1212 37.3153 21.8249 37.103 23.561C37.0845 23.7422 37.0845 23.9248 37.103 24.106C37.1057 24.1368 37.1057 24.1678 37.103 24.1986C37.1958 25.2667 36.3829 28.858 34.5551 28.9725Z" fill="#F7A9A0"/>
<path d="M30.6651 15.7952C30.8015 17.8552 31.6035 23.6645 36.2464 24.1768C36.5344 24.2096 36.8245 24.2187 37.1139 24.204C37.1168 24.1732 37.1168 24.1422 37.1139 24.1114C37.1007 23.93 37.1007 23.7478 37.1139 23.5664C37.3265 21.8287 37.7497 20.1231 38.3742 18.4873C38.3742 18.4873 32.4983 16.302 30.6651 15.7952Z" fill="#263238"/>
<path d="M31.0198 4.37827C29.4867 7.10309 29.1921 15.8933 30.867 18.2312C33.2894 21.6155 38.1724 22.9506 41.2877 19.8334C44.3047 16.8089 44.4848 5.35375 42.5316 3.13575C39.6564 -0.128582 33.2785 0.34554 31.0198 4.37827Z" fill="#F7A9A0"/>
<path d="M38.0196 11.2612C38.0196 11.2612 37.976 11.2612 37.976 11.3157C37.976 11.9042 37.8668 12.5854 37.3213 12.7598V12.7925C37.965 12.7271 38.096 11.8225 38.0196 11.2612Z" fill="#263238"/>
<path d="M37.5013 10.6235C36.552 10.5145 36.4101 12.4219 37.283 12.52C38.156 12.6181 38.2978 10.7162 37.5013 10.6235Z" fill="#263238"/>
<path d="M41.4186 11.6263C41.4186 11.6263 41.4622 11.6263 41.4568 11.6808C41.3968 12.2693 41.4186 12.956 41.9369 13.1903C41.9369 13.1903 41.9369 13.2285 41.9369 13.223C41.2931 13.0813 41.2604 12.1712 41.4186 11.6263Z" fill="#263238"/>
<path d="M41.9915 11.0486C42.9462 11.0486 42.8753 12.9615 41.9915 12.956C41.1076 12.9506 41.1894 11.0486 41.9915 11.0486Z" fill="#263238"/>
<path d="M36.8139 9.69713C37.0703 9.64216 37.3235 9.57303 37.5722 9.49005C37.8505 9.45781 38.11 9.33305 38.3088 9.13582C38.3589 9.06248 38.3834 8.97465 38.3785 8.88596C38.3736 8.79728 38.3395 8.71269 38.2815 8.64535C38.1458 8.53001 37.9819 8.45262 37.8065 8.42103C37.6312 8.38944 37.4506 8.4048 37.2831 8.46552C36.9257 8.52924 36.6048 8.7235 36.3828 9.01048C36.3311 9.0809 36.3018 9.1652 36.2986 9.25248C36.2954 9.33976 36.3185 9.42598 36.365 9.49997C36.4114 9.57397 36.479 9.63232 36.5591 9.66748C36.6391 9.70263 36.7279 9.71296 36.8139 9.69713V9.69713Z" fill="#263238"/>
<path d="M42.8044 10.144C42.5525 10.0744 42.3048 9.99069 42.0624 9.89332C41.7876 9.83818 41.5385 9.69461 41.3531 9.4846C41.3086 9.40834 41.2904 9.31959 41.3012 9.23198C41.312 9.14436 41.3514 9.06272 41.4131 8.99958C41.5568 8.89209 41.7266 8.82482 41.905 8.80471C42.0833 8.78459 42.2639 8.81236 42.4279 8.88514C42.7797 8.98441 43.0826 9.2094 43.279 9.5173C43.3191 9.59012 43.3371 9.67295 43.3311 9.7558C43.325 9.83865 43.2951 9.91799 43.245 9.98424C43.1948 10.0505 43.1265 10.1008 43.0483 10.1292C42.9701 10.1575 42.8854 10.1627 42.8044 10.144V10.144Z" fill="#263238"/>
<path d="M37.0321 16.6999C37.163 16.847 37.2885 17.0486 37.5013 17.0813C37.7222 17.0952 37.9436 17.0617 38.1505 16.9832C38.1505 16.9832 38.1887 16.9832 38.1505 17.0159C38.0571 17.1254 37.9358 17.2076 37.7994 17.2536C37.6629 17.2997 37.5166 17.3079 37.3758 17.2775C37.2599 17.2372 37.1582 17.1643 37.0827 17.0676C37.0072 16.971 36.9612 16.8547 36.9503 16.7326C36.9666 16.6835 37.0157 16.6781 37.0321 16.6999Z" fill="#263238"/>
<path d="M39.5363 15.817C39.2606 16.1218 38.9112 16.3507 38.5215 16.4819C38.3084 16.5488 38.0799 16.5488 37.8668 16.4819C37.4031 16.3238 37.4249 15.8879 37.5395 15.5227C37.6051 15.3324 37.691 15.1497 37.7959 14.9778C38.2725 15.4344 38.8819 15.7283 39.5363 15.817V15.817Z" fill="#263238"/>
<path d="M38.5215 16.4819C38.3084 16.5488 38.0799 16.5488 37.8668 16.4819C37.4031 16.3239 37.4249 15.8879 37.5395 15.5228C37.7884 15.5461 38.0218 15.654 38.2005 15.8286C38.3793 16.0032 38.4926 16.2338 38.5215 16.4819V16.4819Z" fill="#FF9ABB"/>
<path d="M29.9395 12.3892C31.5763 12.1876 33.1476 7.1249 33.1476 7.1249C33.1476 7.1249 32.7929 9.30475 33.213 9.30475C33.6331 9.30475 35.7882 6.57993 36.3174 4.47637C37.4097 5.47006 38.6276 6.31651 39.9401 6.9941C41.8114 7.88784 43.7919 8.03498 43.7591 7.6971C43.7591 6.65622 43.5736 4.06765 42.9135 3.27745C42.0182 2.27575 40.8696 1.53316 39.5881 1.12757C38.3066 0.721976 36.9394 0.668331 35.63 0.972256C32.2364 1.70251 31.0798 3.62623 30.3542 5.14667C29.6285 6.66712 29.3448 12.4601 29.9395 12.3892Z" fill="#263238"/>
<path d="M43.8083 5.4137C43.0117 5.09217 38.3852 4.54176 36.1701 5.12487C33.955 5.70798 29.8468 8.13307 29.6231 8.25841C29.3994 8.38375 29.6231 0.661618 35.9628 0.192949C42.9299 -0.313867 43.8083 5.4137 43.8083 5.4137Z" fill="#DF4952"/>
<path d="M30.0486 8.00229C30.0486 8.00229 34.9207 3.24476 37.3649 2.35647C39.8091 1.46818 45.0031 1.52813 47.9056 3.37555C50.1916 4.81426 43.7591 7.06496 43.7591 7.06496C43.7408 6.79954 43.6613 6.54194 43.527 6.31224C43.3926 6.08253 43.2069 5.88694 42.9844 5.7407C41.5441 4.91235 38.5815 4.94505 36.8466 5.25568C34.6643 5.6426 30.0486 8.00229 30.0486 8.00229Z" fill="#DF4952"/>
<path opacity="0.2" d="M30.0486 8.00229C30.0486 8.00229 34.9207 3.24476 37.3649 2.35647C39.8091 1.46818 45.0031 1.52813 47.9056 3.37555C50.1916 4.81426 43.7591 7.06496 43.7591 7.06496C43.7408 6.79954 43.6613 6.54194 43.527 6.31224C43.3926 6.08253 43.2069 5.88694 42.9844 5.7407C41.5441 4.91235 38.5815 4.94505 36.8466 5.25568C34.6643 5.6426 30.0486 8.00229 30.0486 8.00229Z" fill="black"/>
<path d="M36.4156 14.7217C35.9325 14.6065 35.4915 14.3584 35.1425 14.0055C34.7935 13.6526 34.5505 13.209 34.441 12.7252C34.3316 12.2413 34.3601 11.7365 34.5233 11.268C34.6865 10.7995 34.978 10.3861 35.3645 10.0746C35.751 9.76318 36.2172 9.56617 36.7102 9.50596C37.2031 9.44574 37.7031 9.52472 38.1534 9.73395C38.6036 9.94318 38.9862 10.2743 39.2577 10.6897C39.5291 11.1051 39.6786 11.5881 39.6891 12.0841V12.0841C39.6985 12.4344 39.6384 12.7832 39.5121 13.1102C39.3859 13.4372 39.1961 13.736 38.9536 13.9893C38.7111 14.2427 38.4208 14.4455 38.0995 14.5862C37.7781 14.7268 37.432 14.8025 37.0812 14.8089C36.8565 14.8088 36.6327 14.7795 36.4156 14.7217V14.7217ZM37.5449 9.89332C37.3663 9.85088 37.183 9.83074 36.9994 9.83337C36.4126 9.83919 35.8501 10.0686 35.427 10.4747C35.0038 10.8809 34.7519 11.4331 34.7227 12.0185C34.6935 12.6039 34.8892 13.1784 35.2698 13.6246C35.6504 14.0707 36.1872 14.3549 36.7705 14.419C37.3538 14.4831 37.9396 14.3222 38.4082 13.9694C38.8768 13.6165 39.1928 13.0983 39.2917 12.5205C39.3905 11.9427 39.2648 11.349 38.9401 10.8607C38.6155 10.3724 38.1164 10.0264 37.5449 9.89332Z" fill="#263238"/>
<path d="M42.4825 15.3756C41.495 15.1468 40.8457 13.9206 40.9876 12.5473C41.0487 11.8853 41.318 11.2596 41.7569 10.7598C41.9276 10.5282 42.1566 10.3456 42.4206 10.2307C42.6845 10.1157 42.9742 10.0723 43.2604 10.1049C43.5465 10.1375 43.819 10.245 44.0502 10.4164C44.2815 10.5879 44.4634 10.8172 44.5775 11.0813C44.8876 11.6661 45.0096 12.3322 44.9267 12.9887C44.7576 14.4437 43.7428 15.5282 42.6571 15.4083C42.598 15.4027 42.5396 15.3918 42.4825 15.3756V15.3756ZM43.35 10.5037C43.3047 10.498 43.2589 10.498 43.2136 10.5037C42.9851 10.4906 42.7568 10.5334 42.5486 10.6284C42.3404 10.7234 42.1585 10.8676 42.0187 11.0486C41.6345 11.4946 41.3981 12.0487 41.3422 12.6345C41.2004 13.8933 41.8005 15.0051 42.6953 15.1032C43.59 15.2013 44.4248 14.2585 44.5721 12.9996C44.6502 12.4166 44.5433 11.8239 44.2665 11.3048C44.1807 11.1131 44.0543 10.9422 43.8961 10.8039C43.7379 10.6657 43.5516 10.5632 43.35 10.5037Z" fill="#263238"/>
<path d="M39.5582 12.3784L39.3618 12.0841C39.7982 11.7898 40.7803 11.4465 41.3422 12.2094L41.0585 12.4219C40.5511 11.7353 39.5964 12.3511 39.5582 12.3784Z" fill="#263238"/>
<path d="M27.6972 11.7244L27.4026 11.5282C27.4953 11.3919 28.3301 10.1821 29.1321 10.144C29.9341 10.1058 34.5879 11.0868 34.7679 11.1304L34.697 11.4791C33.3549 11.1957 29.7322 10.4709 29.1484 10.4982C28.5647 10.5254 27.9209 11.3919 27.6972 11.7244Z" fill="#263238"/>
<path d="M31.3253 11.659C31.3253 11.659 29.945 8.53633 28.5646 8.97775C27.1843 9.41917 27.8445 13.6753 29.203 14.5091C29.3696 14.6274 29.5584 14.7107 29.7581 14.7542C29.9578 14.7977 30.1642 14.8005 30.365 14.7623C30.5657 14.7241 30.7567 14.6458 30.9264 14.5321C31.0961 14.4183 31.2411 14.2715 31.3526 14.1004L31.3253 11.659Z" fill="#F7A9A0"/>
<path d="M28.7883 10.1931V10.2312C29.7322 10.847 30.0814 11.9042 30.2669 12.956C30.2267 12.8424 30.1625 12.7387 30.0787 12.6521C29.9949 12.5654 29.8933 12.4978 29.781 12.4539C29.6687 12.4099 29.5482 12.3907 29.4277 12.3974C29.3073 12.4041 29.1897 12.4366 29.0829 12.4928C29.0502 12.4928 29.0829 12.5527 29.0829 12.5527C29.2777 12.5324 29.4739 12.5742 29.6435 12.6721C29.813 12.77 29.9472 12.919 30.0268 13.0977C30.1663 13.3868 30.2742 13.6901 30.3487 14.0023C30.3814 14.1059 30.556 14.0895 30.5396 14.0023C30.8234 12.6236 30.1632 10.6018 28.7883 10.1931Z" fill="#263238"/>
<path d="M173.428 157.851C190.39 157.851 200.211 169.617 200.211 183.464C200.211 197.312 191.11 208.81 174.568 208.81C156.264 208.81 147.524 194.271 147.524 183.339C147.524 172.407 156.264 157.851 173.428 157.851Z" fill="#37474F"/>
<path d="M170.82 157.851C186.942 157.851 196.282 169.617 196.282 183.464C196.282 197.312 187.63 208.81 171.906 208.81C154.507 208.81 146.198 194.271 146.198 183.339C146.198 172.407 154.507 157.851 170.82 157.851Z" fill="#263238"/>
<path d="M170.984 167.797C180.804 167.797 186.5 174.968 186.5 183.404C186.5 191.84 181.23 198.843 171.644 198.843C161.043 198.843 155.98 189.982 155.98 183.317C155.98 176.652 161.043 167.797 170.984 167.797Z" fill="#C7C7C7"/>
<path d="M50.5298 199.546C71.4475 199.546 78.4146 188.565 78.4146 175.339C78.4146 162.112 68.6923 150.859 49.6951 150.859C62.0962 150.859 69.2761 162.102 69.2761 175.339C69.2761 188.576 62.62 199.546 50.5298 199.546Z" fill="#37474F"/>
<path d="M49.6951 150.875C62.0962 150.875 69.2761 162.123 69.2761 175.35C69.2761 188.576 62.6254 199.546 50.5298 199.546C37.1467 199.546 30.7579 185.649 30.7579 175.203C30.7579 164.756 37.1467 150.875 49.6951 150.875Z" fill="#263238"/>
<path d="M39.9019 175.219C39.9019 185.317 37.3322 198.652 49.2477 199.519H49.6678H50.0224H50.5298C62.62 199.519 69.2761 188.538 69.2761 175.312C69.2761 162.085 62.0962 150.832 49.6951 150.832H49.0295H48.7239C48.533 150.832 48.3366 150.859 48.1456 150.875C37.3867 152.074 39.9019 165.213 39.9019 175.219Z" fill="#263238"/>
<path d="M48.8113 160.385C55.702 160.385 59.6956 167.241 59.6956 175.301C59.6956 183.361 55.9966 190.053 49.275 190.053C41.8332 190.053 38.2815 181.584 38.2815 175.219C38.2815 168.854 41.8387 160.385 48.8113 160.385Z" fill="#C7C7C7"/>
<path d="M145.991 100.003H139.318L134.746 93.3H142.564L145.991 100.003Z" fill="#F67E57"/>
<path d="M134.746 93.3L137.425 97.2237L139.318 100.003H145.991L144.185 96.4717L142.559 93.3H134.746Z" fill="#F67E57"/>
<path opacity="0.1" d="M134.746 93.3L137.425 97.2237L144.185 96.4717L142.559 93.3H134.746Z" fill="black"/>
<path d="M162.205 150.025L155.707 151.518L149.75 146.003L157.366 144.26L162.205 150.025Z" fill="#F67E57"/>
<path d="M149.75 146.003L153.236 149.23L155.702 151.518L162.211 150.025L159.657 146.99L157.366 144.26L149.75 146.003Z" fill="#F67E57"/>
<path opacity="0.1" d="M149.75 146.003L153.236 149.23L159.657 146.99L157.366 144.26L149.75 146.003Z" fill="black"/>
<path d="M66.0408 169.813L67.9067 173.938C67.9067 173.938 118.357 177.791 123.147 177.077C127.155 172.363 130.531 167.147 133.191 161.562H110.369C106.972 161.599 103.611 160.853 100.549 159.382L97.6028 158.892L92.2943 161.54L86.4947 169.791L70.3727 169.497L66.0408 169.813Z" fill="#455A64"/>
<path d="M92.2833 161.562C92.2833 161.562 105.203 169.497 130.387 166.805C131.32 165.213 132.269 163.464 133.191 161.562H110.369C106.972 161.599 103.611 160.853 100.549 159.382L97.6028 158.892L92.2833 161.562Z" fill="#37474F"/>
<path d="M198.738 161.121L192.42 164.434C192.42 164.434 174.137 161.121 162.413 163.628C150.688 166.134 147.524 172.391 147.524 172.391H141.604C141.604 172.391 146.689 154.347 155.32 147.775C163.951 141.202 177.809 142.696 185.474 146.821C193.14 150.946 198.738 161.121 198.738 161.121Z" fill="#F67E57"/>
<path opacity="0.1" d="M191.76 163.186C190.538 161.909 189.213 160.736 187.799 159.677C186.397 158.589 184.916 157.607 183.369 156.739C180.365 155.077 177.074 153.999 173.668 153.562C167.001 152.745 160.028 154.685 155.118 159.802C152.358 162.701 150.393 166.254 148.528 169.851C148.528 169.906 148.577 169.949 148.604 169.895C150.185 166.737 152.181 163.805 154.54 161.175C156.813 158.696 159.642 156.791 162.795 155.617C169.085 153.311 175.916 154.194 181.939 156.979C183.667 157.766 185.335 158.676 186.931 159.704C188.568 160.794 190.117 162.009 191.65 163.246C191.661 163.256 191.673 163.262 191.687 163.263C191.701 163.265 191.715 163.262 191.727 163.256C191.739 163.249 191.749 163.239 191.755 163.226C191.76 163.214 191.762 163.2 191.76 163.186V163.186Z" fill="black"/>
<path d="M104.521 126.804V124.575L47.4582 126.412V131.426C47.4582 131.426 30.927 149.655 29.2903 168.603L86.5111 169.813L92.3106 161.562L97.6192 158.914L100.565 159.404V158.129L98.3066 155.475L98.2084 147.616C97.347 146.415 96.734 145.054 96.4052 143.613C96.0764 142.172 96.0384 140.68 96.2934 139.224C96.9044 135.028 104.521 126.804 104.521 126.804Z" fill="#F67E57"/>
<path d="M81.1534 167.159C80.5588 168.249 71.8785 169.813 55.4237 170.254C40.6111 170.652 29.5467 170.325 28.6629 169.371C27.779 168.418 29.9886 151.551 40.0165 142.418C50.0443 133.284 64.2676 131.971 73.6299 137.42C81.8627 142.2 88.006 154.347 81.1534 167.159Z" fill="#F67E57"/>
<path opacity="0.1" d="M83.9468 151.191C83.0671 147.198 81.038 143.547 78.1091 140.69C75.1715 137.751 71.5031 135.646 67.4811 134.592C62.997 133.474 58.3005 133.525 53.8415 134.739C51.61 135.324 49.4521 136.159 47.4091 137.23C45.2529 138.389 43.2202 139.764 41.3422 141.333C40.8403 141.747 40.3329 142.161 39.8364 142.587C39.7928 142.619 39.8364 142.679 39.9019 142.646C41.7904 140.988 43.835 139.515 46.007 138.249C47.9889 137.118 50.0917 136.213 52.2757 135.551C56.6058 134.198 61.2042 133.94 65.6589 134.799C69.685 135.607 73.4164 137.49 76.456 140.249C79.3849 142.883 81.5391 146.265 82.6865 150.031C84.0505 154.619 83.6031 159.671 82.2446 164.2C82.0646 164.81 81.8736 165.41 81.6663 166.009C81.6663 166.074 81.7427 166.096 81.7645 166.036C83.6031 161.333 84.9725 156.265 83.9468 151.191Z" fill="black"/>
<path opacity="0.1" d="M92.2833 161.562L97.5919 158.914L100.538 159.404V158.129L98.2793 155.48L98.1811 147.627C97.3183 146.426 96.7045 145.065 96.3757 143.624C96.0468 142.183 96.0096 140.691 96.2661 139.235C96.9044 135.033 104.521 126.81 104.521 126.81H102.311C102.311 126.81 90.3083 132.995 87.5804 138.101C84.8525 143.208 84.0287 155.181 92.2833 161.562Z" fill="black"/>
<path d="M44.2884 171.993C34.3478 171.993 29.0884 171.687 26.4205 170.63L27.659 167.519C30.7797 168.756 40.5511 168.734 56.2748 168.554C67.8903 168.418 76.4614 167.322 81.8081 165.284L83.003 168.412C77.2198 170.592 68.4904 171.747 56.313 171.889C51.6919 171.955 47.7092 171.993 44.2884 171.993Z" fill="#DBDBDB"/>
<path d="M122.389 96.3954C122.29 96.6188 109.115 99.0439 109.115 99.0439C109.115 99.0439 106.932 97.5725 108.28 95.7087L121.494 92.8586C122.003 93.2743 122.365 93.8426 122.526 94.4794C122.687 95.1162 122.639 95.788 122.389 96.3954V96.3954Z" fill="#263238"/>
<path d="M150.044 79.3816V94.9948C150.044 94.9948 141.604 94.2591 139.356 94.1828C137.108 94.1065 127.119 95.3981 127.119 95.3981L126.344 91.8994C126.344 91.8994 134.042 89.2127 137.316 87.1146C140.589 85.0165 144.359 81.0056 146.383 80.1173C147.531 79.5935 148.784 79.3417 150.044 79.3816V79.3816Z" fill="#F67E57"/>
<path d="M127.152 91.458C127.653 91.9735 128.032 92.5957 128.259 93.2781C128.485 93.9604 128.555 94.6852 128.461 95.3981C128.461 95.3981 122.17 96.548 122.094 96.548C122.144 95.8056 121.961 95.0661 121.569 94.433C121.178 93.7998 120.599 93.3046 119.912 93.0166L127.152 91.458Z" fill="#DBDBDB"/>
<path d="M150.126 94.9948C152.41 94.9948 154.262 91.5009 154.262 87.1909C154.262 82.8809 152.41 79.387 150.126 79.387C147.842 79.387 145.991 82.8809 145.991 87.1909C145.991 91.5009 147.842 94.9948 150.126 94.9948Z" fill="#DBDBDB"/>
<path d="M146.842 87.191C146.842 91.0057 148.429 94.1501 150.383 94.1501C152.336 94.1501 153.923 91.0329 153.923 87.191C153.923 83.349 152.336 80.2263 150.383 80.2263C148.429 80.2263 146.842 83.3435 146.842 87.191Z" fill="white"/>
<path d="M104.521 124.575C104.521 124.575 104.624 115.055 104.253 114.684C103.882 114.314 47.0927 114.51 45.3959 114.684C43.6991 114.859 43.8465 125.949 43.9938 126.466C44.1411 126.984 103.048 124.701 104.521 124.575Z" fill="#37474F"/>
<path d="M109.562 114.782C109.393 114.635 102.191 114.603 101.798 114.603C101.405 114.603 101.547 124.75 101.798 124.733C102.049 124.717 109.611 124.674 109.857 124.45C110.102 124.227 109.933 115.104 109.562 114.782Z" fill="#455A64"/>
<path d="M69.7726 114.237C69.582 114.391 69.4525 114.607 69.407 114.848C69.3503 115.085 69.3102 115.325 69.287 115.567C69.227 116.052 69.2106 116.543 69.1888 117.033C69.1888 118.014 69.1888 119 69.1888 119.987C69.1888 120.973 69.1888 121.96 69.2488 122.941C69.2665 123.426 69.323 123.909 69.4179 124.385C69.4595 124.62 69.5368 124.848 69.6471 125.06C69.6981 125.169 69.7741 125.263 69.869 125.336C69.9639 125.409 70.0749 125.459 70.1927 125.48C70.0621 125.485 69.9325 125.456 69.8161 125.397C69.6996 125.338 69.6002 125.25 69.5271 125.142C69.3705 124.936 69.2471 124.706 69.1615 124.461C68.9963 123.982 68.8811 123.487 68.8178 122.984C68.6926 121.99 68.6325 120.989 68.6378 119.987C68.6271 118.989 68.6763 117.992 68.7851 117C68.8369 116.499 68.9244 116.002 69.0469 115.513C69.1118 115.267 69.1957 115.026 69.2979 114.793C69.3776 114.553 69.5479 114.354 69.7726 114.237V114.237Z" fill="#455A64"/>
<path d="M40.5402 114.586H95.0931V80.7113H40.5402L40.5402 114.586Z" fill="#37474F"/>
<path d="M40.5402 114.586H79.9532V80.7113H40.5402L40.5402 114.586Z" fill="#263238"/>
<path d="M108.394 54.7383H91.405L78.1036 80.7113H95.0931L108.394 54.7383Z" fill="#37474F"/>
<path d="M93.2436 54.7383H91.405L78.1036 80.7113H79.9423L93.2436 54.7383Z" fill="#263238"/>
<path d="M48.3093 80.7059H44.9322V114.597H48.3093V80.7059Z" fill="#F67E57"/>
<path d="M73.1279 80.7059H69.7507V114.597H73.1279V80.7059Z" fill="#F67E57"/>
<path d="M49.9024 91.7196V87.8667C49.9024 87.7713 49.9403 87.6798 50.0079 87.6124C50.0754 87.5449 50.167 87.507 50.2625 87.507H52.4012C52.4897 87.5179 52.5713 87.5607 52.6304 87.6275C52.6895 87.6942 52.7221 87.7803 52.7221 87.8694C52.7221 87.9585 52.6895 88.0446 52.6304 88.1113C52.5713 88.1781 52.4897 88.221 52.4012 88.2318H50.628V89.4253H52.1502C52.2448 89.428 52.3348 89.4668 52.4018 89.5337C52.4687 89.6005 52.5075 89.6904 52.5103 89.785C52.511 89.8329 52.5023 89.8805 52.4846 89.9251C52.4669 89.9697 52.4405 90.0103 52.4071 90.0448C52.3737 90.0792 52.3338 90.1067 52.2897 90.1257C52.2456 90.1447 52.1982 90.1548 52.1502 90.1555H50.628V91.7196C50.6266 91.8155 50.5875 91.9069 50.5191 91.9742C50.4507 92.0415 50.3585 92.0793 50.2625 92.0793C50.2152 92.0793 50.1684 92.07 50.1247 92.0519C50.081 92.0338 50.0413 92.0073 50.0079 91.9739C49.9744 91.9405 49.9479 91.9009 49.9298 91.8572C49.9117 91.8136 49.9024 91.7668 49.9024 91.7196V91.7196Z" fill="white"/>
<path d="M57.3442 88.0738C57.7682 88.5203 58.0046 89.1123 58.0046 89.7277C58.0046 90.3432 57.7682 90.9352 57.3442 91.3817C57.1455 91.5996 56.9038 91.774 56.6343 91.8941C56.3648 92.0141 56.0734 92.0772 55.7784 92.0793C55.4776 92.0779 55.1803 92.0153 54.9045 91.8954C54.6287 91.7754 54.3803 91.6007 54.1744 91.3817C53.7599 90.9304 53.53 90.3402 53.53 89.7277C53.53 89.1153 53.7599 88.5251 54.1744 88.0738C54.3791 87.8533 54.6273 87.6775 54.9033 87.5574C55.1794 87.4374 55.4773 87.3757 55.7784 87.3762C56.0736 87.3773 56.3653 87.4399 56.6349 87.56C56.9046 87.6801 57.1461 87.8551 57.3442 88.0738V88.0738ZM57.2569 89.7087C57.2578 89.2855 57.1002 88.8772 56.815 88.5642C56.6825 88.4181 56.5209 88.3013 56.3404 88.2213C56.16 88.1414 55.9648 88.1001 55.7675 88.1001C55.5701 88.1001 55.3749 88.1414 55.1945 88.2213C55.0141 88.3013 54.8524 88.4181 54.7199 88.5642C54.4309 88.8752 54.271 89.2843 54.2726 89.7087C54.2699 90.13 54.4302 90.536 54.7199 90.8422C54.8505 90.9914 55.0116 91.111 55.1922 91.193C55.3729 91.2749 55.569 91.3173 55.7675 91.3173C55.9659 91.3173 56.162 91.2749 56.3427 91.193C56.5234 91.111 56.6844 90.9914 56.815 90.8422C57.0976 90.5407 57.2555 90.1435 57.2569 89.7305V89.7087Z" fill="white"/>
<path d="M62.8436 88.0738C63.2677 88.5203 63.5041 89.1123 63.5041 89.7277C63.5041 90.3432 63.2677 90.9352 62.8436 91.3817C62.6449 91.5996 62.4032 91.774 62.1338 91.8941C61.8643 92.0141 61.5729 92.0772 61.2778 92.0793C60.9771 92.0779 60.6797 92.0153 60.4039 91.8954C60.1282 91.7754 59.8797 91.6007 59.6738 91.3817C59.2594 90.9304 59.0294 90.3402 59.0294 89.7277C59.0294 89.1153 59.2594 88.5251 59.6738 88.0738C59.8785 87.8533 60.1267 87.6775 60.4028 87.5574C60.6788 87.4374 60.9767 87.3757 61.2778 87.3762C61.573 87.3773 61.8648 87.4399 62.1344 87.56C62.404 87.6801 62.6456 87.8551 62.8436 88.0738V88.0738ZM62.7563 89.7087C62.7573 89.2855 62.5996 88.8772 62.3144 88.5642C62.182 88.4181 62.0203 88.3013 61.8399 88.2213C61.6595 88.1414 61.4643 88.1001 61.2669 88.1001C61.0695 88.1001 60.8743 88.1414 60.6939 88.2213C60.5135 88.3013 60.3519 88.4181 60.2194 88.5642C59.9304 88.8752 59.7704 89.2843 59.772 89.7087C59.7693 90.13 59.9296 90.536 60.2194 90.8422C60.35 90.9914 60.511 91.111 60.6917 91.193C60.8723 91.2749 61.0685 91.3173 61.2669 91.3173C61.4653 91.3173 61.6615 91.2749 61.8421 91.193C62.0228 91.111 62.1838 90.9914 62.3144 90.8422C62.597 90.5407 62.7549 90.1435 62.7563 89.7305V89.7087Z" fill="white"/>
<path d="M64.6004 91.7196V87.8667C64.5997 87.8192 64.6085 87.7721 64.6264 87.7282C64.6442 87.6842 64.6707 87.6442 64.7043 87.6107C64.7379 87.5772 64.7778 87.5507 64.8219 87.5329C64.8659 87.5151 64.913 87.5063 64.9605 87.507H65.7298C66.3175 87.5357 66.8716 87.789 67.2774 88.2146C67.6831 88.6402 67.9095 89.2054 67.9095 89.7931C67.9095 90.3808 67.6831 90.946 67.2774 91.3716C66.8716 91.7972 66.3175 92.0506 65.7298 92.0792H64.9605C64.865 92.0792 64.7734 92.0413 64.7059 91.9739C64.6384 91.9064 64.6004 91.815 64.6004 91.7196V91.7196ZM65.3261 91.3544H65.7298C66.1284 91.3309 66.5029 91.1562 66.7768 90.8659C67.0507 90.5757 67.2032 90.192 67.2032 89.7931C67.2032 89.3943 67.0507 89.0105 66.7768 88.7203C66.5029 88.4301 66.1284 88.2553 65.7298 88.2318H65.3261V91.3544Z" fill="white"/>
<path d="M58.0098 94.9621H57.2787V97.4144C57.2841 97.4508 57.2815 97.4879 57.2712 97.5233C57.2609 97.5586 57.2431 97.5913 57.2191 97.6191C57.195 97.6469 57.1652 97.6693 57.1317 97.6846C57.0982 97.6999 57.0618 97.7078 57.025 97.7078C56.9882 97.7078 56.9518 97.6999 56.9183 97.6846C56.8848 97.6693 56.855 97.6469 56.8309 97.6191C56.8069 97.5913 56.7891 97.5586 56.7788 97.5233C56.7685 97.4879 56.7659 97.4508 56.7713 97.4144V94.9621H56.0239C55.9563 94.9607 55.8919 94.9333 55.8441 94.8855C55.7963 94.8378 55.7688 94.7735 55.7674 94.706C55.7674 94.638 55.7944 94.5729 55.8425 94.5249C55.8906 94.4768 55.9558 94.4498 56.0239 94.4498H57.988C58.055 94.4513 58.1188 94.4789 58.1658 94.5267C58.2127 94.5746 58.2389 94.639 58.2389 94.706C58.2393 94.7694 58.216 94.8308 58.1737 94.8781C58.1314 94.9254 58.0729 94.9553 58.0098 94.9621V94.9621Z" fill="white"/>
<path d="M61.3051 94.8532C61.605 95.1651 61.7713 95.5815 61.7688 96.0139C61.7743 96.4469 61.6075 96.8644 61.3051 97.1747C61.1671 97.3278 60.999 97.4509 60.8113 97.5362C60.6235 97.6216 60.4202 97.6673 60.2139 97.6706C60.0018 97.669 59.7923 97.6241 59.5981 97.5389C59.4039 97.4536 59.2292 97.3297 59.0846 97.1747C58.7862 96.8626 58.6234 96.4454 58.6317 96.0139C58.628 95.5833 58.7901 95.1677 59.0846 94.8532C59.2289 94.6981 59.4036 94.5745 59.598 94.4901C59.7923 94.4057 60.002 94.3623 60.2139 94.3627C60.42 94.3636 60.6237 94.4078 60.8116 94.4923C60.9996 94.5767 61.1677 94.6997 61.3051 94.8532V94.8532ZM61.2451 96.0139C61.2467 95.7172 61.1356 95.4309 60.9341 95.2128C60.8423 95.1113 60.7304 95.0298 60.6055 94.9735C60.4807 94.9173 60.3455 94.8874 60.2085 94.8858C60.068 94.8854 59.9289 94.9142 59.8002 94.9705C59.6715 95.0268 59.556 95.1093 59.461 95.2128C59.2609 95.4317 59.1499 95.7175 59.1499 96.0139C59.1499 96.3104 59.2609 96.5961 59.461 96.815C59.556 96.9185 59.6715 97.001 59.8002 97.0573C59.9289 97.1136 60.068 97.1425 60.2085 97.142C60.3455 97.1404 60.4807 97.1106 60.6055 97.0543C60.7304 96.998 60.8423 96.9166 60.9341 96.815C61.1392 96.5948 61.2507 96.3037 61.2451 96.003V96.0139Z" fill="white"/>
<path d="M49.9133 103.507C50.174 102.295 50.8357 101.205 51.7918 100.415C52.7479 99.6236 53.9427 99.1773 55.1837 99.1474C56.1457 99.1244 57.081 99.465 57.8025 100.101C57.865 100.166 57.9135 100.244 57.945 100.329C57.9765 100.413 57.9904 100.504 57.9858 100.594C57.9812 100.684 57.9582 100.773 57.9182 100.854C57.8783 100.935 57.8222 101.007 57.7534 101.066C57.6366 101.21 57.4687 101.303 57.2848 101.326C57.1009 101.35 56.915 101.301 56.7659 101.191C56.2577 100.751 55.6049 100.515 54.9327 100.526C54.0673 100.538 53.2334 100.852 52.5758 101.414C51.9161 101.95 51.4662 102.701 51.3046 103.534C51.2313 103.903 51.2423 104.284 51.3367 104.648C51.4312 105.013 51.6067 105.351 51.8502 105.638C52.1039 105.929 52.419 106.16 52.7728 106.314C53.1265 106.469 53.5102 106.543 53.8961 106.532C54.5129 106.523 55.1174 106.358 55.6529 106.052L55.9529 104.385H54.2071C54.1218 104.387 54.037 104.37 53.9595 104.335C53.882 104.299 53.814 104.245 53.7609 104.179C53.7078 104.112 53.6712 104.034 53.6539 103.95C53.6367 103.867 53.6393 103.78 53.6615 103.698C53.6966 103.507 53.7966 103.333 53.9447 103.207C54.0928 103.081 54.2799 103.01 54.4744 103.006H56.8968C56.9854 102.997 57.0748 103.01 57.1571 103.044C57.2395 103.077 57.3124 103.131 57.3694 103.199C57.4265 103.267 57.4659 103.348 57.4843 103.435C57.5027 103.522 57.4996 103.612 57.4751 103.698L56.995 106.423C56.98 106.486 56.9599 106.548 56.935 106.608L56.8968 106.684C56.8317 106.8 56.7401 106.899 56.6295 106.973C55.7643 107.577 54.7385 107.909 53.6833 107.927V107.927C53.1204 107.962 52.5571 107.865 52.038 107.645C51.5189 107.425 51.0582 107.087 50.6924 106.658C50.3266 106.229 50.0658 105.721 49.9306 105.174C49.7954 104.628 49.7895 104.057 49.9133 103.507Z" fill="white"/>
<path d="M60.3885 106.613C60.0664 106.176 59.8405 105.676 59.7258 105.145C59.6111 104.614 59.6101 104.065 59.7229 103.534C59.95 102.34 60.568 101.255 61.4797 100.45C62.3491 99.6383 63.4872 99.1746 64.6768 99.1474C65.2015 99.1383 65.7211 99.2512 66.1946 99.4773C66.668 99.7033 67.0824 100.036 67.4047 100.45C67.7203 100.891 67.9408 101.393 68.0526 101.924C68.1643 102.455 68.1648 103.003 68.054 103.534C67.8388 104.729 67.2231 105.815 66.3081 106.613C65.4387 107.425 64.3007 107.889 63.111 107.916C62.5866 107.928 62.0668 107.816 61.5937 107.59C61.1207 107.364 60.7077 107.029 60.3885 106.613V106.613ZM61.1142 103.534C61.0373 103.903 61.0379 104.284 61.1158 104.653C61.1938 105.021 61.3474 105.37 61.567 105.676C61.7807 105.949 62.0551 106.17 62.3685 106.319C62.6818 106.468 63.0257 106.543 63.3729 106.537C64.1554 106.511 64.9025 106.205 65.4788 105.676C66.1062 105.115 66.5301 104.362 66.6846 103.534C66.7633 103.167 66.7636 102.788 66.6856 102.421C66.6075 102.054 66.4529 101.707 66.2317 101.404C66.0192 101.129 65.7452 100.907 65.4316 100.757C65.1181 100.606 64.7737 100.531 64.4259 100.537C63.6413 100.558 62.8919 100.867 62.3199 101.404C61.7006 101.965 61.2828 102.713 61.1305 103.534H61.1142Z" fill="white"/>
<path d="M53.7706 95.9049H49.9024V96.4226H53.7706V95.9049Z" fill="white"/>
<path d="M68.0158 95.9049H64.1476V96.4226H68.0158V95.9049Z" fill="white"/>
<path d="M151.457 100.003C152.832 102.014 158.337 129.36 159.417 130.734C160.498 132.107 162.565 132.205 162.565 132.205L166.232 141.235C166.232 141.235 157.191 144.085 152.172 148.205C145.658 153.535 139.662 171.208 139.662 171.208C138.68 171.895 126.491 176.903 123.147 177.099C123.147 177.099 138.691 160.053 139.956 136.461C140.447 127.317 134.822 114.45 134.451 108.074C134.059 101.251 136.121 100.025 139.76 100.025L151.457 100.003Z" fill="#F67E57"/>
<path d="M122.4 179.061L119.966 176.761C133.606 162.341 138.636 139.622 138.238 133.42C138.031 130.238 137.01 126.684 135.925 122.924C134.768 118.908 133.459 114.357 132.902 109.415C132.356 104.826 132.902 101.861 134.468 100.09C136.034 98.3191 138.183 98.3245 139.613 98.3245H152.592V101.676H139.607C138.358 101.676 137.507 101.72 136.967 102.325C136.426 102.929 135.723 104.504 136.236 109.044C136.781 113.703 137.976 117.921 139.149 121.998C140.284 125.938 141.359 129.665 141.582 133.202C142.008 139.807 136.77 163.911 122.4 179.061Z" fill="#DBDBDB"/>
<path d="M159.483 138.216C160.247 141.022 162.653 142.815 164.862 142.216C167.072 141.616 168.234 138.853 167.465 136.047C166.695 133.24 164.295 131.442 162.085 132.041C159.876 132.641 158.714 135.404 159.483 138.216Z" fill="#DBDBDB"/>
<path d="M160.301 137.992C160.989 140.499 163.067 142.112 164.955 141.6C166.843 141.088 167.814 138.641 167.137 136.15C166.461 133.66 164.371 132.03 162.489 132.543C160.607 133.055 159.619 135.486 160.301 137.992Z" fill="white"/>
<path opacity="0.1" d="M149.831 137.758C149.226 134.935 148.571 132.118 148.004 129.284C147.436 126.45 146.913 123.611 146.471 120.761C146.04 118.107 145.576 115.426 145.407 112.739C145.238 109.932 145.407 107.098 146.771 104.564C146.774 104.559 146.775 104.554 146.776 104.548C146.777 104.542 146.777 104.537 146.775 104.531C146.773 104.525 146.771 104.52 146.767 104.516C146.764 104.511 146.759 104.507 146.754 104.504C146.749 104.502 146.744 104.5 146.738 104.499C146.732 104.498 146.727 104.499 146.721 104.5C146.715 104.502 146.71 104.504 146.706 104.508C146.701 104.511 146.697 104.516 146.694 104.521C145.292 106.564 144.834 109.017 144.758 111.453C144.765 114.14 145.002 116.822 145.467 119.469C146.263 125.278 147.355 131.042 148.74 136.739C149.531 139.96 150.552 143.126 151.643 146.254C151.646 146.264 151.654 146.272 151.664 146.277C151.673 146.282 151.685 146.282 151.695 146.279C151.705 146.275 151.713 146.268 151.718 146.258C151.722 146.248 151.723 146.237 151.719 146.227C151.068 143.415 150.439 140.592 149.831 137.758Z" fill="black"/>
</svg>
