<svg width="52" height="36" viewBox="0 0 52 36" fill="none" xmlns="http://www.w3.org/2000/svg">
<path fill-rule="evenodd" clip-rule="evenodd" d="M23.7036 18.1823L23.93 16.7385L23.4257 16.7267H21.0176L22.6911 6.07241C22.6963 6.04015 22.7132 6.0102 22.7378 5.9889C22.7625 5.96759 22.7941 5.9559 22.8271 5.9559H26.8875C28.2356 5.9559 29.1659 6.2375 29.6515 6.79339C29.8792 7.05417 30.0242 7.32676 30.0944 7.62661C30.168 7.94133 30.1692 8.31728 30.0975 8.77589L30.0922 8.80925V9.10314L30.32 9.23268C30.5117 9.33483 30.6641 9.4517 30.781 9.5855C30.9757 9.80854 31.1017 10.092 31.1549 10.4279C31.21 10.7734 31.1918 11.1846 31.1017 11.6502C30.9978 12.1856 30.8298 12.652 30.603 13.0336C30.3944 13.3852 30.1286 13.6769 29.813 13.9028C29.5117 14.1176 29.1537 14.2806 28.749 14.3849C28.3567 14.4875 27.9095 14.5392 27.4191 14.5392H27.1031C26.8772 14.5392 26.6577 14.6209 26.4854 14.7673C26.3126 14.9169 26.1984 15.1211 26.1634 15.3445L26.1395 15.4746L25.7395 18.0194L25.7214 18.1128C25.7165 18.1424 25.7083 18.1571 25.6962 18.1671C25.6854 18.1762 25.6699 18.1823 25.6547 18.1823H23.7036" fill="#28356A"/>
<path fill-rule="evenodd" clip-rule="evenodd" d="M30.5357 8.84322C30.5237 8.92101 30.5098 9.00051 30.4942 9.0822C29.9588 11.8427 28.1267 12.7963 25.787 12.7963H24.5957C24.3095 12.7963 24.0684 13.0048 24.0239 13.2883L23.2412 18.2731C23.2122 18.4593 23.355 18.6269 23.542 18.6269H25.655C25.9051 18.6269 26.1177 18.4444 26.1571 18.1967L26.1778 18.0889L26.5757 15.5541L26.6012 15.415C26.6402 15.1664 26.8532 14.9838 27.1034 14.9838H27.4193C29.4665 14.9838 31.0691 14.1494 31.5375 11.7344C31.7331 10.7256 31.6318 9.88329 31.1141 9.29087C30.9574 9.11227 30.7631 8.96399 30.5357 8.84322" fill="#298FC2"/>
<path fill-rule="evenodd" clip-rule="evenodd" d="M29.9756 8.61896C29.8937 8.59498 29.8093 8.57331 29.7228 8.55371C29.6357 8.53459 29.5466 8.51767 29.4548 8.50282C29.1336 8.45071 28.7816 8.42599 28.4046 8.42599H25.222C25.1436 8.42599 25.0691 8.44377 25.0026 8.47591C24.8557 8.54677 24.7467 8.68629 24.7203 8.8571L24.0432 13.1627L24.0238 13.2883C24.0683 13.0048 24.3095 12.7963 24.5956 12.7963H25.787C28.1267 12.7963 29.9587 11.8422 30.4942 9.0822C30.5102 9.00051 30.5236 8.92101 30.5356 8.84322C30.4002 8.77102 30.2535 8.7093 30.0955 8.6567C30.0564 8.64368 30.0162 8.63114 29.9756 8.61896" fill="#22284F"/>
<path fill-rule="evenodd" clip-rule="evenodd" d="M24.7202 8.8571C24.7467 8.68629 24.8557 8.54677 25.0025 8.4764C25.0696 8.44414 25.1435 8.42636 25.222 8.42636H28.4045C28.7815 8.42636 29.1335 8.4512 29.4547 8.50331C29.5465 8.51804 29.6356 8.53508 29.7227 8.5542C29.8093 8.57367 29.8937 8.59547 29.9755 8.61933C30.0161 8.6315 30.0564 8.64417 30.0958 8.65671C30.2538 8.7093 30.4006 8.77151 30.5361 8.84322C30.6954 7.82311 30.5347 7.12856 29.9855 6.49962C29.3798 5.80713 28.2868 5.5108 26.8881 5.5108H22.8276C22.5419 5.5108 22.2982 5.71935 22.2541 6.00326L20.5628 16.7671C20.5295 16.9801 20.693 17.1722 20.9069 17.1722H23.4137L24.7202 8.8571" fill="#28356A"/>
<path fill-rule="evenodd" clip-rule="evenodd" d="M11.74 21.1127H8.77941C8.57679 21.1127 8.40449 21.2605 8.37285 21.4614L7.17546 29.0837C7.15169 29.2341 7.26773 29.3696 7.41967 29.3696H8.83301C9.03562 29.3696 9.20792 29.222 9.23957 29.0207L9.56247 26.9648C9.59363 26.7636 9.7663 26.6158 9.96855 26.6158H10.9057C12.8559 26.6158 13.9813 25.6682 14.2754 23.7907C14.4078 22.9691 14.281 22.3237 13.8978 21.8717C13.477 21.3754 12.7307 21.1127 11.74 21.1127ZM12.0813 23.8967C11.9195 24.9633 11.1078 24.9633 10.323 24.9633H9.8762L10.1896 22.9713C10.2083 22.8509 10.3121 22.7623 10.4334 22.7623H10.6382C11.1728 22.7623 11.6771 22.7623 11.9376 23.0682C12.0931 23.2507 12.1406 23.522 12.0813 23.8967V23.8967Z" fill="#28356A"/>
<path fill-rule="evenodd" clip-rule="evenodd" d="M20.6651 23.8047H19.2474C19.1267 23.8047 19.0223 23.8934 19.0037 24.0138L18.9409 24.4119L18.8418 24.2676C18.535 23.8203 17.8505 23.6708 17.1674 23.6708C15.6007 23.6708 14.2627 24.8622 14.0021 26.5334C13.8667 27.367 14.0592 28.1642 14.5303 28.7201C14.9623 29.2312 15.5805 29.4442 16.3159 29.4442C17.5783 29.4442 18.2781 28.6293 18.2781 28.6293L18.215 29.0248C18.1912 29.176 18.3072 29.3117 18.4583 29.3117H19.7352C19.9384 29.3117 20.1098 29.1639 20.1418 28.9626L20.908 24.0907C20.9323 23.9407 20.8166 23.8047 20.6651 23.8047ZM18.6889 26.5752C18.5522 27.3883 17.9094 27.9342 17.0895 27.9342C16.6778 27.9342 16.3488 27.8016 16.1375 27.5505C15.928 27.301 15.8484 26.9459 15.915 26.5503C16.0428 25.7442 16.6964 25.1803 17.5038 25.1803C17.9064 25.1803 18.2336 25.3148 18.4492 25.568C18.6652 25.824 18.7509 26.1813 18.6889 26.5752V26.5752Z" fill="#28356A"/>
<path fill-rule="evenodd" clip-rule="evenodd" d="M28.1066 23.9266H26.6818C26.5459 23.9266 26.4182 23.9944 26.3412 24.1079L24.3763 27.0139L23.5434 24.2213C23.491 24.0466 23.3305 23.9266 23.1486 23.9266H21.7487C21.5785 23.9266 21.4604 24.0935 21.5145 24.2544L23.0837 28.878L21.6084 30.9691C21.4924 31.1338 21.6093 31.3603 21.8097 31.3603H23.2326C23.3677 31.3603 23.4941 31.2942 23.5707 31.183L28.3091 24.3156C28.4226 24.1514 28.306 23.9266 28.1066 23.9266" fill="#28356A"/>
<path fill-rule="evenodd" clip-rule="evenodd" d="M32.8559 21.1127H29.895C29.6929 21.1127 29.5206 21.2605 29.4889 21.4614L28.2915 29.0837C28.2678 29.2341 28.3838 29.3696 28.5349 29.3696H30.0543C30.1954 29.3696 30.3161 29.2663 30.3382 29.1254L30.6781 26.9648C30.7092 26.7636 30.882 26.6158 31.0842 26.6158H32.021C33.9715 26.6158 35.0966 25.6682 35.391 23.7907C35.5239 22.9691 35.3962 22.3237 35.013 21.8717C34.5926 21.3754 33.8468 21.1127 32.8559 21.1127ZM33.1975 23.8967C33.036 24.9633 32.2243 24.9633 31.4391 24.9633H30.9929L31.3067 22.9713C31.3252 22.8509 31.4283 22.7623 31.5499 22.7623H31.7547C32.2889 22.7623 32.7936 22.7623 33.0542 23.0682C33.2097 23.2507 33.2568 23.522 33.1975 23.8967V23.8967Z" fill="#298FC2"/>
<path fill-rule="evenodd" clip-rule="evenodd" d="M41.7792 23.8047H40.3624C40.2407 23.8047 40.1373 23.8934 40.1191 24.0138L40.0563 24.4119L39.9568 24.2676C39.6499 23.8203 38.9659 23.6708 38.2827 23.6708C36.7161 23.6708 35.3786 24.8622 35.118 26.5334C34.9829 27.367 35.1746 28.1642 35.6456 28.7201C36.0786 29.2312 36.6957 29.4442 37.4313 29.4442C38.6935 29.4442 39.3935 28.6293 39.3935 28.6293L39.3304 29.0248C39.3066 29.176 39.4225 29.3117 39.5746 29.3117H40.8511C41.0533 29.3117 41.2256 29.1639 41.2572 28.9626L42.0238 24.0907C42.0472 23.9407 41.9311 23.8047 41.7792 23.8047ZM39.8031 26.5752C39.6671 27.3883 39.0234 27.9342 38.2035 27.9342C37.7927 27.9342 37.4628 27.8016 37.2515 27.5505C37.0421 27.301 36.9633 26.9459 37.029 26.5503C37.1577 25.7442 37.8104 25.1803 38.6178 25.1803C39.0204 25.1803 39.3476 25.3148 39.5632 25.568C39.78 25.824 39.8657 26.1813 39.8031 26.5752V26.5752Z" fill="#298FC2"/>
<path fill-rule="evenodd" clip-rule="evenodd" d="M43.3324 21.3223L42.1174 29.084C42.0936 29.2345 42.2095 29.37 42.3606 29.37H43.5822C43.7853 29.37 43.9575 29.2223 43.9887 29.0211L45.1869 21.3992C45.2108 21.2487 45.0948 21.1127 44.9437 21.1127H43.5758C43.455 21.1131 43.3511 21.2019 43.3324 21.3223" fill="#298FC2"/>
</svg>
