<svg width="52" height="36" viewBox="0 0 52 36" fill="none" xmlns="http://www.w3.org/2000/svg">
<path d="M23.0878 24.4012H19.6257L21.7911 11.9479H25.253L23.0878 24.4012Z" fill="#334F60"/>
<path d="M35.6377 12.2523C34.9548 12.0004 33.8717 11.7222 32.5325 11.7222C29.1137 11.7222 26.7061 13.4178 26.6914 15.8421C26.663 17.6308 28.4151 18.6242 29.7255 19.2206C31.0649 19.83 31.5202 20.2278 31.5202 20.771C31.5066 21.6053 30.4379 21.9899 29.4412 21.9899C28.059 21.9899 27.3184 21.7916 26.1929 21.3275L25.737 21.1285L25.2526 23.924C26.0645 24.268 27.5605 24.5734 29.1137 24.5867C32.7463 24.5867 35.1112 22.9173 35.1392 20.3338C35.153 18.9162 34.2278 17.8299 32.2332 16.9423C31.0223 16.3725 30.2808 15.9883 30.2808 15.4053C30.295 14.8753 30.908 14.3324 32.2749 14.3324C33.4003 14.3058 34.2273 14.5574 34.8537 14.8092L35.1669 14.9415L35.6377 12.2523V12.2523V12.2523Z" fill="#334F60"/>
<path fill-rule="evenodd" clip-rule="evenodd" d="M41.8348 11.9479H44.5127L47.3057 24.401H44.1002C44.1002 24.401 43.7865 22.9701 43.6871 22.5329H39.2421C39.1136 22.864 38.5155 24.401 38.5155 24.401H34.8829L40.0253 12.9811C40.3816 12.1729 41.009 11.9479 41.8348 11.9479ZM41.6215 16.5051C41.6215 16.5051 40.5244 19.274 40.2393 19.9894H43.1169C42.9746 19.3668 42.319 16.3859 42.319 16.3859L42.077 15.3128C41.9751 15.5891 41.8278 15.969 41.7284 16.2253C41.661 16.399 41.6157 16.5158 41.6215 16.5051Z" fill="#334F60"/>
<path fill-rule="evenodd" clip-rule="evenodd" d="M4.62534 11.9479H10.1954C10.9504 11.9741 11.563 12.1993 11.7624 12.9947L12.9728 18.7159C12.9729 18.7164 12.9731 18.717 12.9733 18.7176L13.3438 20.4398L16.7342 11.9479H20.395L14.9534 24.3879H11.2924L8.20667 13.5672C7.142 12.9883 5.92691 12.5226 4.56836 12.1995L4.62534 11.9479Z" fill="#334F60"/>
<path fill-rule="evenodd" clip-rule="evenodd" d="M29.9088 31.1938C29.8628 31.2021 29.8042 31.2063 29.7331 31.2063C29.5365 31.2063 29.3963 31.1482 29.3126 31.032C29.2289 30.9157 29.1871 30.7455 29.1871 30.5214V26.6984H29.7017V30.5588C29.7017 30.6418 29.7164 30.6999 29.7457 30.7331C29.7749 30.7663 29.8084 30.7829 29.8461 30.7829H29.8931C29.9078 30.7829 29.9297 30.7788 29.959 30.7705L30.0281 31.1565C29.9946 31.1731 29.9549 31.1855 29.9088 31.1938ZM28.3651 30.6895V31.1316H25.9301V27.0471H28.3023V27.483H26.451V28.7656H28.0136V29.2076H26.451V30.6895H28.3651ZM32.0239 31.2063C32.2331 31.2063 32.4193 31.1752 32.5825 31.1129C32.7456 31.0506 32.8942 30.978 33.0281 30.895L32.8461 30.5588C32.7331 30.6293 32.6149 30.6864 32.4915 30.73C32.368 30.7736 32.2331 30.7954 32.0867 30.7954C31.7938 30.7954 31.5564 30.7009 31.3744 30.5121C31.1924 30.3232 31.0909 30.0669 31.07 29.7431H33.1285C33.1368 29.7058 33.1421 29.6611 33.1442 29.6092C33.1463 29.5574 33.1473 29.5044 33.1473 29.4505C33.1473 29.2346 33.1201 29.0395 33.0657 28.8652C33.0113 28.6909 32.9329 28.5414 32.8304 28.4169C32.7279 28.2924 32.6003 28.1969 32.4475 28.1305C32.2948 28.0641 32.1222 28.0309 31.9298 28.0309C31.7541 28.0309 31.5846 28.0672 31.4214 28.1398C31.2583 28.2125 31.1129 28.3173 30.9853 28.4543C30.8577 28.5912 30.7551 28.7583 30.6777 28.9555C30.6003 29.1526 30.5616 29.3758 30.5616 29.6248C30.5616 29.8739 30.5993 30.0959 30.6746 30.291C30.7499 30.4861 30.8535 30.6511 30.9853 30.786C31.1171 30.9209 31.2719 31.0247 31.4497 31.0973C31.6275 31.17 31.8189 31.2063 32.0239 31.2063ZM31.0636 29.3758H32.6953C32.6953 29.0686 32.6294 28.8351 32.4976 28.6753C32.3658 28.5155 32.1807 28.4356 31.9422 28.4356C31.8334 28.4356 31.7299 28.4563 31.6316 28.4978C31.5332 28.5394 31.4443 28.6006 31.3648 28.6815C31.2853 28.7625 31.2194 28.861 31.1671 28.9773C31.1148 29.0935 31.0803 29.2263 31.0636 29.3758ZM35.1053 31.2063C35.2894 31.2063 35.4651 31.172 35.6325 31.1036C35.7998 31.0351 35.9525 30.9406 36.0906 30.8203L35.8647 30.4778C35.7684 30.5608 35.6607 30.6324 35.5414 30.6926C35.4222 30.7528 35.2915 30.7829 35.1492 30.7829C35.0111 30.7829 34.8835 30.7549 34.7664 30.6988C34.6492 30.6428 34.5499 30.5639 34.4683 30.4622C34.3867 30.3606 34.3229 30.2391 34.2769 30.098C34.2308 29.9569 34.2078 29.7991 34.2078 29.6248C34.2078 29.4505 34.2319 29.2917 34.28 29.1485C34.3281 29.0053 34.394 28.8818 34.4777 28.778C34.5614 28.6743 34.6618 28.5944 34.7789 28.5383C34.8961 28.4823 35.0237 28.4543 35.1618 28.4543C35.2831 28.4543 35.3929 28.4792 35.4912 28.529C35.5896 28.5788 35.6827 28.6431 35.7705 28.722L36.0341 28.3858C35.9253 28.2903 35.7998 28.2073 35.6576 28.1367C35.5153 28.0662 35.3438 28.0309 35.1429 28.0309C34.9463 28.0309 34.7591 28.0662 34.5812 28.1367C34.4034 28.2073 34.2476 28.3111 34.1137 28.448C33.9798 28.585 33.8731 28.7521 33.7936 28.9493C33.7141 29.1464 33.6744 29.3716 33.6744 29.6248C33.6744 29.8739 33.711 30.097 33.7842 30.2941C33.8574 30.4913 33.9578 30.6573 34.0855 30.7922C34.2131 30.9271 34.3647 31.0299 34.5405 31.1004C34.7162 31.171 34.9044 31.2063 35.1053 31.2063ZM37.9516 31.172C37.8533 31.1949 37.756 31.2063 37.6598 31.2063C37.4966 31.2063 37.3596 31.1814 37.2487 31.1316C37.1378 31.0818 37.0479 31.0133 36.9788 30.9261C36.9098 30.8389 36.8606 30.7331 36.8313 30.6086C36.8021 30.484 36.7874 30.3471 36.7874 30.1976V28.5227H36.3356V28.1367L36.8125 28.1056L36.8753 27.2588H37.3083V28.1056H38.1305V28.5227H37.3083V30.2039C37.3083 30.3906 37.3428 30.5349 37.4119 30.6366C37.4809 30.7383 37.6033 30.7891 37.779 30.7891C37.8334 30.7891 37.892 30.7808 37.9547 30.7642C38.0175 30.7476 38.074 30.7289 38.1242 30.7082L38.2246 31.0942C38.1409 31.1233 38.0499 31.1492 37.9516 31.172ZM39.3353 31.1316V29.189C39.4399 28.9316 39.5623 28.751 39.7024 28.6473C39.8426 28.5435 39.9775 28.4916 40.1072 28.4916C40.17 28.4916 40.2223 28.4958 40.2641 28.5041C40.3059 28.5124 40.352 28.5248 40.4022 28.5414L40.5026 28.0931C40.4064 28.0516 40.2976 28.0309 40.1762 28.0309C40.0005 28.0309 39.8384 28.0869 39.6899 28.199C39.5413 28.3111 39.4148 28.4626 39.3102 28.6535H39.2913L39.2474 28.1056H38.8207V31.1316H39.3353ZM42.6585 31.1004C42.489 31.171 42.3102 31.2063 42.1219 31.2063C41.9336 31.2063 41.7547 31.171 41.5853 31.1004C41.4158 31.0299 41.2663 30.9271 41.1366 30.7922C41.0069 30.6573 40.9033 30.4913 40.8259 30.2941C40.7485 30.097 40.7098 29.8739 40.7098 29.6248C40.7098 29.3716 40.7485 29.1464 40.8259 28.9493C40.9033 28.7521 41.0069 28.585 41.1366 28.448C41.2663 28.3111 41.4158 28.2073 41.5853 28.1367C41.7547 28.0662 41.9336 28.0309 42.1219 28.0309C42.3102 28.0309 42.489 28.0662 42.6585 28.1367C42.8279 28.2073 42.9775 28.3111 43.1072 28.448C43.2369 28.585 43.3404 28.7521 43.4178 28.9493C43.4952 29.1464 43.5339 29.3716 43.5339 29.6248C43.5339 29.8739 43.4952 30.097 43.4178 30.2941C43.3404 30.4913 43.2369 30.6573 43.1072 30.7922C42.9775 30.9271 42.8279 31.0299 42.6585 31.1004ZM42.1218 30.7829C41.9921 30.7829 41.8729 30.7549 41.7641 30.6988C41.6553 30.6428 41.5622 30.5639 41.4848 30.4622C41.4074 30.3606 41.3478 30.2391 41.3059 30.098C41.2641 29.9569 41.2432 29.7991 41.2432 29.6248C41.2432 29.4505 41.2641 29.2917 41.3059 29.1485C41.3478 29.0053 41.4074 28.8818 41.4848 28.778C41.5622 28.6743 41.6553 28.5944 41.7641 28.5383C41.8729 28.4823 41.9921 28.4543 42.1218 28.4543C42.2515 28.4543 42.3707 28.4823 42.4795 28.5383C42.5883 28.5944 42.6814 28.6743 42.7588 28.778C42.8362 28.8818 42.8958 29.0053 42.9377 29.1485C42.9795 29.2917 43.0004 29.4505 43.0004 29.6248C43.0004 29.7991 42.9795 29.9569 42.9377 30.098C42.8958 30.2391 42.8362 30.3606 42.7588 30.4622C42.6814 30.5639 42.5883 30.6428 42.4795 30.6988C42.3707 30.7549 42.2515 30.7829 42.1218 30.7829ZM44.8518 28.9399V31.1316H44.3372V28.1056H44.764L44.8079 28.5414H44.8267C44.9732 28.3961 45.1269 28.2747 45.288 28.1772C45.4491 28.0796 45.6363 28.0309 45.8497 28.0309C46.1719 28.0309 46.4072 28.1305 46.5557 28.3297C46.7043 28.529 46.7785 28.8237 46.7785 29.2139V31.1316H46.2639V29.2824C46.2639 28.996 46.2179 28.7894 46.1258 28.6628C46.0338 28.5362 45.8874 28.4729 45.6865 28.4729C45.5275 28.4729 45.3874 28.5124 45.2661 28.5912C45.1447 28.6701 45.0067 28.7863 44.8518 28.9399Z" fill="#334F60"/>
</svg>
